<?xml version="1.0" encoding="UTF-8"?>
<svg width="1024" height="1024" viewBox="0 0 1024 1024" xmlns="http://www.w3.org/2000/svg">
  <defs>
    <linearGradient id="g" x1="0" y1="0" x2="1" y2="1">
      <stop offset="0%" stop-color="#3A7BD5"/>
      <stop offset="100%" stop-color="#00D2FF"/>
    </linearGradient>
    <filter id="s" x="-20%" y="-20%" width="140%" height="140%">
      <feDropShadow dx="0" dy="8" stdDeviation="12" flood-color="#000" flood-opacity="0.25"/>
    </filter>
  </defs>
  <rect x="64" y="64" width="896" height="896" rx="220" fill="url(#g)"/>
  <!-- stylized phone + play -->
  <g filter="url(#s)">
    <path d="M380 240h264a56 56 0 0 1 56 56v432a56 56 0 0 1-56 56H380a56 56 0 0 1-56-56V296a56 56 0 0 1 56-56z" fill="#ffffff" opacity="0.9"/>
    <circle cx="512" cy="690" r="26" fill="#3A7BD5"/>
    <rect x="408" y="310" width="208" height="280" rx="24" fill="#3A7BD5" opacity="0.12"/>
    <polygon points="470,450 470,360 560,405" fill="#3A7BD5"/>
  </g>
</svg>
