<?xml version="1.0" encoding="UTF-8"?>
<svg xmlns="http://www.w3.org/2000/svg"
     viewBox="0 0 500 500"
     preserveAspectRatio="xMidYMid meet"
     role="img" aria-label="Homey device icon - hand silhouette">
  <title>Homey Device Icon — Hand Silhouette</title>
  <desc>Pure black silhouette with even-odd holes; square 500x500 viewBox for Homey device icon.</desc>
  <g fill="#000000" fill-rule="evenodd">
    <path d="M 113.20 30.00 L 112.85 30.35 L 112.50 30.70 L 112.15 30.70 L 111.80 31.05 L 111.45 31.40 L 111.10 31.75 L 110.75 32.10 L 110.75 32.45 L 110.40 32.80 L 110.05 33.15 L 110.05 33.50 L 109.70 33.85 L 109.35 34.20 L 109.35 34.55 L 109.35 34.90 L 109.00 35.25 L 108.65 35.61 L 108.65 35.96 L 108.65 36.31 L 108.65 36.66 L 108.30 37.01 L 108.30 37.36 L 107.95 37.71 L 107.95 38.06 L 107.95 38.41 L 107.95 38.76 L 107.95 39.11 L 107.95 39.46 L 107.95 39.81 L 107.95 40.16 L 107.95 40.51 L 107.95 40.86 L 107.95 41.21 L 107.95 41.56 L 107.95 41.91 L 107.95 42.26 L 107.95 42.61 L 107.95 42.96 L 107.95 43.31 L 107.95 43.66 L 107.95 44.01 L 107.95 44.36 L 107.95 44.71 L 107.95 45.06 L 107.95 45.41 L 107.95 45.76 L 107.95 46.11 L 108.30 46.46 L 108.30 46.82 L 108.65 47.17 L 108.65 47.52 L 108.65 47.87 L 108.65 48.22 L 108.65 48.57 L 109.00 48.92 L 109.00 49.27 L 109.35 49.62 L 109.35 49.97 L 109.35 50.32 L 109.35 50.67 L 109.70 51.02 L 110.05 51.37 L 110.05 51.72 L 110.05 52.07 L 110.40 52.42 L 110.75 52.77 L 110.75 53.12 L 110.75 53.47 L 111.10 53.82 L 111.45 54.17 L 111.45 54.52 L 111.80 54.87 L 112.15 55.22 L 112.15 55.57 L 112.50 55.92 L 112.85 56.27 L 112.85 56.62 L 113.20 56.97 L 113.55 57.32 L 113.55 57.68 L 113.90 58.03 L 114.25 58.38 L 114.60 58.73 L 114.95 59.08 L 115.30 59.43 L 115.65 59.78 L 116.00 60.13 L 116.35 60.48 L 116.70 60.83 L 117.05 61.18 L 117.40 61.53 L 117.75 61.88 L 118.11 62.23 L 118.46 62.58 L 118.81 62.58 L 119.16 62.93 L 119.51 63.28 L 119.86 63.28 L 120.21 63.63 L 120.21 63.98 L 120.56 63.98 L 120.91 64.33 L 121.26 64.68 L 121.61 64.68 L 121.96 65.03 L 122.31 65.38 L 122.66 65.38 L 123.01 65.73 L 123.36 66.08 L 123.71 66.08 L 124.06 66.43 L 124.41 66.78 L 124.76 66.78 L 125.11 66.78 L 125.46 67.13 L 125.81 67.13 L 126.16 67.48 L 126.51 67.83 L 126.86 67.83 L 127.21 68.18 L 127.56 68.18 L 127.91 68.54 L 128.26 68.54 L 128.61 68.89 L 128.96 68.89 L 129.32 68.89 L 129.67 69.24 L 130.02 69.59 L 130.37 69.59 L 130.72 69.59 L 131.07 69.59 L 131.42 69.94 L 131.77 70.29 L 132.12 70.29 L 132.47 70.29 L 132.82 70.29 L 133.17 70.64 L 133.52 70.99 L 133.87 70.99 L 134.22 70.99 L 134.57 70.99 L 134.92 71.34 L 135.27 71.34 L 135.62 71.69 L 135.97 71.69 L 136.32 71.69 L 136.67 71.69 L 137.02 72.04 L 137.37 72.04 L 137.72 72.39 L 138.07 72.39 L 138.42 72.39 L 138.77 72.39 L 139.12 72.39 L 139.47 72.74 L 139.82 72.74 L 140.18 73.09 L 140.53 73.09 L 140.88 73.09 L 141.23 73.09 L 141.58 73.09 L 141.93 73.44 L 142.28 73.44 L 142.63 73.44 L 142.98 73.79 L 143.33 73.79 L 143.68 73.79 L 144.03 73.79 L 144.38 73.79 L 144.73 73.79 L 145.08 74.14 L 145.43 74.14 L 145.78 74.14 L 146.13 74.49 L 146.48 74.49 L 146.83 74.49 L 147.18 74.49 L 147.53 74.49 L 147.88 74.49 L 148.23 74.49 L 148.58 74.84 L 148.93 74.84 L 149.28 74.84 L 149.63 74.84 L 149.98 75.19 L 150.33 75.19 L 150.68 75.19 L 151.04 75.19 L 151.39 75.19 L 151.74 75.19 L 152.09 75.19 L 152.44 75.19 L 152.79 75.54 L 153.14 75.54 L 153.49 75.54 L 153.84 75.54 L 154.19 75.54 L 154.54 75.89 L 154.89 75.89 L 155.24 75.89 L 155.59 75.89 L 155.94 75.89 L 156.29 75.89 L 156.64 75.89 L 156.99 75.89 L 157.34 75.89 L 157.69 75.89 L 158.04 76.24 L 158.39 76.24 L 158.74 76.24 L 159.09 76.24 L 159.44 76.24 L 159.79 76.24 L 160.14 76.24 L 160.49 76.24 L 160.84 76.24 L 161.19 76.59 L 161.54 76.59 L 161.89 76.59 L 162.25 76.59 L 162.60 76.59 L 162.95 76.59 L 163.30 76.59 L 163.65 76.59 L 164.00 76.59 L 164.35 76.59 L 164.70 76.94 L 165.05 76.94 L 165.40 77.29 L 165.75 77.29 L 166.10 77.64 L 166.45 77.64 L 166.80 77.99 L 167.15 78.34 L 167.50 78.34 L 167.85 78.34 L 168.20 78.69 L 168.55 79.04 L 168.90 79.39 L 169.25 79.39 L 169.60 79.75 L 169.95 80.10 L 170.30 80.10 L 170.65 80.45 L 171.00 80.80 L 171.35 81.15 L 171.70 81.15 L 172.05 81.50 L 172.40 81.85 L 172.75 81.85 L 173.11 82.20 L 173.46 82.55 L 173.81 82.55 L 174.16 82.90 L 174.51 83.25 L 174.86 83.25 L 175.21 83.60 L 175.56 83.95 L 175.91 83.95 L 176.26 84.30 L 176.61 84.65 L 176.96 84.65 L 177.31 84.65 L 177.66 85.00 L 178.01 85.00 L 178.36 85.35 L 178.71 85.35 L 179.06 85.35 L 179.41 85.70 L 179.76 85.70 L 180.11 86.05 L 180.46 86.05 L 180.81 86.05 L 181.16 86.05 L 181.51 86.40 L 181.86 86.40 L 182.21 86.75 L 182.56 86.75 L 182.91 86.75 L 183.26 86.75 L 183.61 87.10 L 183.96 87.45 L 184.32 87.45 L 184.67 87.45 L 185.02 87.45 L 185.37 87.45 L 185.72 87.80 L 186.07 88.15 L 186.42 88.15 L 186.77 88.15 L 187.12 88.15 L 187.47 88.15 L 187.82 88.50 L 188.17 88.50 L 188.52 88.85 L 188.87 88.85 L 189.22 88.85 L 189.57 88.85 L 189.92 89.20 L 190.27 89.20 L 190.62 89.55 L 190.97 89.55 L 191.32 89.55 L 191.67 89.55 L 192.02 89.55 L 192.37 89.90 L 192.72 90.25 L 193.07 90.25 L 193.42 90.25 L 193.77 90.25 L 194.12 90.25 L 194.47 90.61 L 194.82 90.61 L 195.18 90.96 L 195.53 90.96 L 195.88 90.96 L 196.23 90.96 L 196.58 90.96 L 196.93 91.31 L 197.28 91.66 L 197.63 91.66 L 197.98 92.01 L 198.33 92.36 L 198.68 92.71 L 199.03 93.06 L 199.38 93.41 L 199.73 93.76 L 200.08 93.76 L 200.43 94.11 L 200.78 94.46 L 201.13 94.81 L 201.48 95.16 L 201.83 95.51 L 202.18 95.51 L 202.53 95.86 L 202.88 96.21 L 203.23 96.56 L 203.58 96.91 L 203.93 97.26 L 204.28 97.61 L 204.63 97.96 L 204.98 98.31 L 205.33 98.31 L 205.68 98.66 L 206.04 99.01 L 206.39 99.36 L 206.74 99.71 L 207.09 100.06 L 207.44 100.41 L 207.79 100.41 L 208.14 100.76 L 208.14 101.11 L 208.49 101.11 L 208.84 101.46 L 208.84 101.82 L 209.19 101.82 L 209.54 102.17 L 209.89 102.52 L 210.24 102.87 L 210.59 103.22 L 210.94 103.57 L 211.29 103.92 L 211.64 103.92 L 211.99 104.27 L 212.34 104.62 L 212.69 104.97 L 213.04 105.32 L 213.39 105.32 L 213.74 105.67 L 213.74 106.02 L 214.09 106.02 L 214.44 106.37 L 214.79 106.72 L 215.14 107.07 L 215.49 107.42 L 215.84 107.42 L 216.19 107.77 L 216.54 108.12 L 216.89 108.12 L 217.25 108.47 L 217.25 108.82 L 217.60 108.82 L 217.95 109.17 L 218.30 109.52 L 218.65 109.52 L 219.00 109.87 L 219.35 110.22 L 219.70 110.57 L 220.05 110.92 L 220.40 110.92 L 220.75 111.27 L 221.10 111.62 L 221.45 111.62 L 221.80 111.97 L 222.15 112.32 L 222.50 112.32 L 222.85 112.68 L 223.20 113.03 L 223.55 113.38 L 223.90 113.38 L 224.25 113.73 L 224.60 114.08 L 224.95 114.43 L 225.30 114.43 L 225.65 114.78 L 226.00 114.78 L 226.35 115.13 L 226.70 115.48 L 227.05 115.48 L 227.40 115.83 L 227.75 116.18 L 228.11 116.18 L 228.46 116.53 L 228.81 116.88 L 229.16 116.88 L 229.51 117.23 L 229.86 117.23 L 230.21 117.58 L 230.56 117.93 L 230.91 117.93 L 231.26 118.28 L 231.61 118.28 L 231.96 118.63 L 232.31 118.98 L 232.66 118.98 L 233.01 119.33 L 233.36 119.68 L 233.71 119.68 L 234.06 120.03 L 234.41 120.38 L 234.76 120.38 L 235.11 120.73 L 235.46 121.08 L 235.81 121.08 L 236.16 121.43 L 236.51 121.78 L 236.86 121.78 L 237.21 122.13 L 237.56 122.48 L 237.91 122.48 L 238.26 122.83 L 238.61 123.18 L 238.96 123.18 L 239.32 123.54 L 239.67 123.89 L 240.02 123.89 L 240.37 124.24 L 240.72 124.59 L 241.07 124.59 L 241.42 124.94 L 241.77 125.29 L 242.12 125.29 L 242.47 125.64 L 242.82 125.99 L 243.17 125.99 L 243.52 126.34 L 243.87 126.69 L 244.22 126.69 L 244.57 127.04 L 244.92 127.39 L 245.27 127.74 L 245.62 128.09 L 245.97 128.09 L 246.32 128.44 L 246.67 128.79 L 247.02 128.79 L 247.37 129.14 L 247.72 129.49 L 248.07 129.49 L 248.42 129.84 L 248.77 130.19 L 249.12 130.19 L 249.47 130.54 L 249.82 130.89 L 250.18 131.24 L 250.53 131.24 L 250.88 131.59 L 251.23 131.94 L 251.58 132.29 L 251.93 132.29 L 252.28 132.64 L 252.63 132.99 L 252.98 133.34 L 253.33 133.34 L 253.68 133.69 L 254.03 134.04 L 254.38 134.39 L 254.73 134.39 L 255.08 134.75 L 255.43 135.10 L 255.78 135.45 L 256.13 135.45 L 256.48 135.80 L 256.83 136.15 L 257.18 136.50 L 257.53 136.50 L 257.88 136.85 L 258.23 137.20 L 258.58 137.55 L 258.93 137.55 L 259.28 137.90 L 259.63 138.25 L 259.98 138.60 L 260.33 138.95 L 260.68 138.95 L 261.04 139.30 L 261.39 139.65 L 261.74 140.00 L 262.09 140.35 L 262.44 140.35 L 262.79 140.70 L 263.14 141.05 L 263.49 141.40 L 263.84 141.75 L 264.19 141.75 L 264.54 142.10 L 264.54 142.45 L 264.89 142.45 L 265.24 142.80 L 265.59 143.15 L 265.94 143.50 L 266.29 143.85 L 266.64 143.85 L 266.99 144.20 L 267.34 144.55 L 267.69 144.90 L 268.04 145.25 L 268.39 145.25 L 268.74 145.61 L 268.74 145.96 L 269.09 145.96 L 269.44 146.31 L 269.44 146.66 L 269.79 146.66 L 270.14 147.01 L 270.49 147.36 L 270.84 147.71 L 271.19 148.06 L 271.54 148.06 L 271.89 148.41 L 272.25 148.76 L 272.60 149.11 L 272.95 149.46 L 273.30 149.81 L 273.65 150.16 L 274.00 150.51 L 274.35 150.86 L 274.70 151.21 L 275.05 151.56 L 275.40 151.91 L 275.75 152.26 L 276.10 152.61 L 276.45 152.96 L 276.80 153.31 L 277.15 153.66 L 277.50 154.01 L 277.85 154.36 L 278.20 154.71 L 278.55 155.06 L 278.90 155.41 L 279.25 155.76 L 279.25 156.11 L 279.60 156.46 L 279.95 156.82 L 280.30 157.17 L 280.30 157.52 L 280.65 157.87 L 281.00 158.22 L 281.35 158.57 L 281.70 158.92 L 281.70 159.27 L 282.05 159.62 L 282.40 159.97 L 282.40 160.32 L 282.75 160.67 L 283.11 161.02 L 283.11 161.37 L 283.46 161.72 L 283.81 162.07 L 283.81 162.42 L 283.81 162.77 L 284.16 163.12 L 284.16 163.47 L 284.51 163.82 L 284.51 164.17 L 284.51 164.52 L 284.51 164.87 L 284.51 165.22 L 284.51 165.57 L 284.51 165.92 L 284.51 166.27 L 284.51 166.62 L 284.16 166.97 L 283.81 167.32 L 283.81 167.68 L 283.46 168.03 L 283.11 168.03 L 282.75 168.38 L 282.40 168.73 L 282.05 168.73 L 281.70 169.08 L 281.35 169.08 L 281.00 169.08 L 280.65 169.08 L 280.30 169.43 L 279.95 169.43 L 279.60 169.43 L 279.25 169.43 L 278.90 169.43 L 278.55 169.78 L 278.20 169.78 L 277.85 169.78 L 277.50 169.78 L 277.15 169.78 L 276.80 169.78 L 276.45 169.78 L 276.10 169.78 L 275.75 169.78 L 275.40 169.78 L 275.05 169.78 L 274.70 169.78 L 274.35 169.78 L 274.00 169.78 L 273.65 169.78 L 273.30 169.78 L 272.95 169.78 L 272.60 169.43 L 272.25 169.43 L 271.89 169.43 L 271.54 169.43 L 271.19 169.43 L 270.84 169.08 L 270.49 169.08 L 270.14 169.08 L 269.79 169.08 L 269.44 169.08 L 269.09 168.73 L 268.74 168.73 L 268.39 168.38 L 268.04 168.38 L 267.69 168.38 L 267.34 168.38 L 266.99 168.03 L 266.64 168.03 L 266.29 167.68 L 265.94 167.68 L 265.59 167.68 L 265.24 167.68 L 264.89 167.68 L 264.54 167.32 L 264.19 167.32 L 263.84 166.97 L 263.49 166.97 L 263.14 166.97 L 262.79 166.97 L 262.44 166.62 L 262.09 166.62 L 261.74 166.27 L 261.39 166.27 L 261.04 166.27 L 260.68 165.92 L 260.33 165.92 L 259.98 165.57 L 259.63 165.57 L 259.28 165.57 L 258.93 165.57 L 258.58 165.22 L 258.23 164.87 L 257.88 164.87 L 257.53 164.87 L 257.18 164.87 L 256.83 164.52 L 256.48 164.52 L 256.13 164.17 L 255.78 164.17 L 255.43 164.17 L 255.08 163.82 L 254.73 163.47 L 254.38 163.47 L 254.03 163.47 L 253.68 163.47 L 253.33 163.12 L 252.98 162.77 L 252.63 162.77 L 252.28 162.77 L 251.93 162.42 L 251.58 162.42 L 251.23 162.07 L 250.88 162.07 L 250.53 162.07 L 250.18 161.72 L 249.82 161.37 L 249.47 161.37 L 249.12 161.37 L 248.77 161.02 L 248.42 160.67 L 248.07 160.67 L 247.72 160.67 L 247.37 160.32 L 247.02 159.97 L 246.67 159.97 L 246.32 159.97 L 245.97 159.62 L 245.62 159.27 L 245.27 159.27 L 244.92 159.27 L 244.57 158.92 L 244.22 158.57 L 243.87 158.57 L 243.52 158.22 L 243.17 158.22 L 242.82 157.87 L 242.47 157.52 L 242.12 157.52 L 241.77 157.17 L 241.42 157.17 L 241.07 156.82 L 240.72 156.46 L 240.37 156.46 L 240.02 156.11 L 239.67 155.76 L 239.32 155.76 L 238.96 155.41 L 238.61 155.06 L 238.26 155.06 L 237.91 154.71 L 237.56 154.36 L 237.21 154.36 L 236.86 154.01 L 236.51 153.66 L 236.16 153.31 L 235.81 153.31 L 235.46 152.96 L 235.11 152.61 L 234.76 152.26 L 234.41 151.91 L 234.06 151.56 L 233.71 151.56 L 233.36 151.21 L 233.01 150.86 L 232.66 150.51 L 232.31 150.16 L 231.96 149.81 L 231.61 149.81 L 231.26 149.46 L 230.91 149.11 L 230.56 148.76 L 230.21 148.41 L 229.86 148.41 L 229.51 148.06 L 229.16 147.71 L 228.81 147.71 L 228.46 147.36 L 228.11 147.01 L 227.75 146.66 L 227.40 146.66 L 227.05 146.31 L 226.70 146.31 L 226.35 145.96 L 226.00 145.61 L 225.65 145.61 L 225.30 145.25 L 224.95 144.90 L 224.60 144.90 L 224.25 144.55 L 223.90 144.20 L 223.55 144.20 L 223.20 144.20 L 222.85 143.85 L 222.50 143.50 L 222.15 143.50 L 221.80 143.50 L 221.45 143.15 L 221.10 142.80 L 220.75 142.80 L 220.40 142.80 L 220.05 142.45 L 219.70 142.10 L 219.35 142.10 L 219.00 142.10 L 218.65 142.10 L 218.30 141.75 L 217.95 141.75 L 217.60 141.40 L 217.25 141.40 L 216.89 141.40 L 216.54 141.05 L 216.19 141.05 L 215.84 140.70 L 215.49 140.70 L 215.14 140.70 L 214.79 140.70 L 214.44 140.35 L 214.09 140.35 L 213.74 140.35 L 213.39 140.00 L 213.04 140.00 L 212.69 140.00 L 212.34 140.00 L 211.99 140.00 L 211.64 140.00 L 211.29 140.00 L 210.94 140.00 L 210.59 139.65 L 210.24 139.65 L 209.89 139.65 L 209.54 139.65 L 209.19 139.65 L 208.84 139.65 L 208.49 139.65 L 208.14 139.65 L 207.79 139.65 L 207.44 139.65 L 207.09 139.65 L 206.74 140.00 L 206.39 140.00 L 206.04 140.00 L 205.68 140.00 L 205.33 140.35 L 204.98 140.35 L 204.63 140.70 L 204.28 141.05 L 204.28 141.40 L 203.93 141.75 L 203.58 142.10 L 203.58 142.45 L 203.58 142.80 L 203.23 143.15 L 203.23 143.50 L 203.23 143.85 L 202.88 144.20 L 202.88 144.55 L 202.88 144.90 L 202.88 145.25 L 202.53 145.61 L 202.53 145.96 L 202.18 146.31 L 202.18 146.66 L 202.18 147.01 L 202.18 147.36 L 201.83 147.71 L 201.83 148.06 L 201.83 148.41 L 201.83 148.76 L 201.48 149.11 L 201.48 149.46 L 201.48 149.81 L 201.48 150.16 L 201.48 150.51 L 201.48 150.86 L 201.13 151.21 L 201.13 151.56 L 201.13 151.91 L 201.13 152.26 L 200.78 152.61 L 200.78 152.96 L 200.78 153.31 L 200.78 153.66 L 200.78 154.01 L 200.78 154.36 L 200.78 154.71 L 200.78 155.06 L 200.43 155.41 L 200.43 155.76 L 200.43 156.11 L 200.43 156.46 L 200.43 156.82 L 200.08 157.17 L 200.08 157.52 L 200.08 157.87 L 200.08 158.22 L 200.08 158.57 L 200.08 158.92 L 200.08 159.27 L 200.08 159.62 L 200.08 159.97 L 200.08 160.32 L 200.08 160.67 L 200.08 161.02 L 199.73 161.37 L 199.73 161.72 L 199.73 162.07 L 199.73 162.42 L 199.73 162.77 L 199.73 163.12 L 199.38 163.47 L 199.38 163.82 L 199.38 164.17 L 199.38 164.52 L 199.38 164.87 L 199.38 165.22 L 199.38 165.57 L 199.38 165.92 L 199.38 166.27 L 199.38 166.62 L 199.38 166.97 L 199.38 167.32 L 199.38 167.68 L 199.38 168.03 L 199.03 168.38 L 199.03 168.73 L 199.03 169.08 L 199.03 169.43 L 199.03 169.78 L 199.03 170.13 L 199.03 170.48 L 198.68 170.83 L 198.68 171.18 L 198.68 171.53 L 198.68 171.88 L 198.68 172.23 L 198.68 172.58 L 198.68 172.93 L 198.68 173.28 L 198.68 173.63 L 198.68 173.98 L 198.68 174.33 L 198.68 174.68 L 198.68 175.03 L 198.68 175.38 L 198.33 175.73 L 198.33 176.08 L 198.33 176.43 L 198.33 176.78 L 198.33 177.13 L 197.98 177.48 L 197.98 177.83 L 197.98 178.18 L 197.98 178.54 L 197.98 178.89 L 197.98 179.24 L 197.98 179.59 L 197.98 179.94 L 197.98 180.29 L 197.98 180.64 L 197.98 180.99 L 197.98 181.34 L 197.63 181.69 L 197.63 182.04 L 197.63 182.39 L 197.63 182.74 L 197.28 183.09 L 197.28 183.44 L 197.28 183.79 L 197.28 184.14 L 197.28 184.49 L 197.28 184.84 L 197.28 185.19 L 196.93 185.54 L 196.93 185.89 L 196.93 186.24 L 196.93 186.59 L 196.58 186.94 L 196.58 187.29 L 196.58 187.64 L 196.58 187.99 L 196.58 188.34 L 196.23 188.69 L 196.23 189.04 L 195.88 189.39 L 195.88 189.75 L 195.88 190.10 L 195.88 190.45 L 195.88 190.80 L 195.88 191.15 L 195.53 191.50 L 195.18 191.85 L 195.18 192.20 L 195.18 192.55 L 195.18 192.90 L 194.82 193.25 L 194.82 193.60 L 194.47 193.95 L 194.47 194.30 L 194.12 194.65 L 194.12 195.00 L 193.77 195.35 L 193.77 195.70 L 193.42 196.05 L 193.42 196.40 L 193.07 196.75 L 193.07 197.10 L 192.72 197.45 L 192.37 197.80 L 192.02 198.15 L 191.67 198.50 L 191.67 198.85 L 191.32 199.20 L 190.97 199.55 L 190.62 199.90 L 190.27 200.25 L 190.27 200.61 L 189.92 200.96 L 189.57 201.31 L 189.57 201.66 L 189.22 202.01 L 189.22 202.36 L 188.87 202.71 L 188.87 203.06 L 188.52 203.41 L 188.52 203.76 L 188.17 204.11 L 188.17 204.46 L 187.82 204.81 L 187.82 205.16 L 187.82 205.51 L 187.47 205.86 L 187.47 206.21 L 187.47 206.56 L 187.47 206.91 L 187.12 207.26 L 187.12 207.61 L 187.12 207.96 L 187.12 208.31 L 186.77 208.66 L 186.77 209.01 L 186.77 209.36 L 186.77 209.71 L 186.42 210.06 L 186.42 210.41 L 186.42 210.76 L 186.42 211.11 L 186.42 211.46 L 186.42 211.82 L 186.42 212.17 L 186.42 212.52 L 186.42 212.87 L 186.42 213.22 L 186.42 213.57 L 186.42 213.92 L 186.07 214.27 L 186.07 214.62 L 186.07 214.97 L 186.07 215.32 L 186.07 215.67 L 186.07 216.02 L 186.07 216.37 L 186.07 216.72 L 186.07 217.07 L 186.07 217.42 L 186.07 217.77 L 186.42 218.12 L 186.42 218.47 L 186.42 218.82 L 186.42 219.17 L 186.42 219.52 L 186.42 219.87 L 186.42 220.22 L 186.42 220.57 L 186.42 220.92 L 186.42 221.27 L 186.42 221.62 L 186.42 221.97 L 186.42 222.32 L 186.42 222.68 L 186.42 223.03 L 186.77 223.38 L 186.77 223.73 L 186.77 224.08 L 186.77 224.43 L 186.77 224.78 L 186.42 225.13 L 186.07 225.13 L 185.72 225.13 L 185.37 225.13 L 185.02 225.13 L 184.67 225.13 L 184.32 225.13 L 183.96 225.48 L 183.61 225.48 L 183.26 225.48 L 182.91 225.48 L 182.56 225.48 L 182.21 225.48 L 181.86 225.48 L 181.51 225.48 L 181.16 225.48 L 180.81 225.48 L 180.46 225.48 L 180.11 225.48 L 179.76 225.83 L 179.41 225.83 L 179.06 225.83 L 178.71 225.83 L 178.36 225.83 L 178.01 226.18 L 177.66 226.18 L 177.31 226.18 L 176.96 226.18 L 176.61 226.18 L 176.26 226.18 L 175.91 226.18 L 175.56 226.18 L 175.21 226.18 L 174.86 226.53 L 174.51 226.53 L 174.16 226.53 L 173.81 226.53 L 173.46 226.88 L 173.11 226.88 L 172.75 226.88 L 172.40 226.88 L 172.05 226.88 L 171.70 226.88 L 171.35 226.88 L 171.00 226.88 L 170.65 227.23 L 170.30 227.23 L 169.95 227.23 L 169.60 227.58 L 169.25 227.58 L 168.90 227.58 L 168.55 227.58 L 168.20 227.58 L 167.85 227.58 L 167.50 227.93 L 167.15 227.93 L 166.80 227.93 L 166.45 227.93 L 166.10 228.28 L 165.75 228.28 L 165.40 228.28 L 165.05 228.28 L 164.70 228.28 L 164.35 228.63 L 164.00 228.63 L 163.65 228.63 L 163.30 228.98 L 162.95 228.98 L 162.60 228.98 L 162.25 228.98 L 161.89 229.33 L 161.54 229.33 L 161.19 229.33 L 160.84 229.68 L 160.49 229.68 L 160.14 229.68 L 159.79 230.03 L 159.44 230.03 L 159.09 230.03 L 158.74 230.38 L 158.39 230.38 L 158.04 230.38 L 157.69 230.73 L 157.34 230.73 L 156.99 230.73 L 156.64 231.08 L 156.29 231.08 L 155.94 231.08 L 155.59 231.43 L 155.24 231.43 L 154.89 231.78 L 154.54 231.78 L 154.19 231.78 L 153.84 232.13 L 153.49 232.13 L 153.14 232.48 L 152.79 232.48 L 152.44 232.83 L 152.09 232.83 L 151.74 233.18 L 151.39 233.18 L 151.04 233.54 L 150.68 233.54 L 150.33 233.89 L 149.98 233.89 L 149.63 234.24 L 149.28 234.24 L 148.93 234.59 L 148.58 234.94 L 148.23 234.94 L 147.88 235.29 L 147.53 235.64 L 147.18 235.64 L 146.83 235.99 L 146.48 236.34 L 146.13 236.69 L 145.78 237.04 L 145.43 237.04 L 145.08 237.39 L 144.73 237.74 L 144.38 238.09 L 144.03 238.44 L 143.68 238.79 L 143.68 239.14 L 143.33 239.49 L 142.98 239.84 L 142.98 240.19 L 142.63 240.54 L 142.28 240.89 L 142.28 241.24 L 141.93 241.59 L 141.58 241.94 L 141.58 242.29 L 141.58 242.64 L 141.58 242.99 L 141.23 243.34 L 141.23 243.69 L 140.88 244.04 L 140.88 244.39 L 140.88 244.75 L 140.88 245.10 L 140.88 245.45 L 140.88 245.80 L 140.88 246.15 L 140.88 246.50 L 140.88 246.85 L 140.88 247.20 L 140.88 247.55 L 140.88 247.90 L 141.23 248.25 L 141.58 248.60 L 141.58 248.95 L 141.58 249.30 L 141.93 249.65 L 142.28 250.00 L 142.63 250.35 L 142.98 250.70 L 142.98 251.05 L 143.33 251.05 L 143.68 251.40 L 144.03 251.75 L 144.38 252.10 L 144.73 252.45 L 145.08 252.45 L 145.43 252.80 L 145.78 253.15 L 146.13 253.15 L 146.48 253.50 L 146.83 253.50 L 147.18 253.85 L 147.53 253.85 L 147.88 253.85 L 148.23 254.20 L 148.58 254.20 L 148.93 254.55 L 149.28 254.55 L 149.63 254.55 L 149.98 254.55 L 150.33 254.55 L 150.68 254.90 L 151.04 254.90 L 151.39 255.25 L 151.74 255.25 L 152.09 255.25 L 152.44 255.25 L 152.79 255.25 L 153.14 255.25 L 153.49 255.25 L 153.84 255.61 L 154.19 255.61 L 154.54 255.61 L 154.89 255.61 L 155.24 255.96 L 155.59 255.96 L 155.94 255.96 L 156.29 255.96 L 156.64 255.96 L 156.99 255.96 L 157.34 255.96 L 157.69 255.96 L 158.04 255.96 L 158.39 255.96 L 158.74 255.96 L 159.09 255.96 L 159.44 255.96 L 159.79 255.96 L 160.14 255.96 L 160.49 255.96 L 160.84 255.96 L 161.19 255.96 L 161.54 255.96 L 161.89 255.96 L 162.25 255.61 L 162.60 255.61 L 162.95 255.61 L 163.30 255.61 L 163.65 255.25 L 164.00 255.25 L 164.35 255.25 L 164.70 255.25 L 165.05 255.25 L 165.40 255.25 L 165.75 255.25 L 166.10 255.25 L 166.45 255.61 L 166.80 255.96 L 167.15 255.96 L 167.50 256.31 L 167.85 256.66 L 168.20 256.66 L 168.55 257.01 L 168.90 257.36 L 169.25 257.36 L 169.60 257.71 L 169.95 257.71 L 170.30 258.06 L 170.65 258.06 L 171.00 258.06 L 171.35 258.06 L 171.70 258.06 L 172.05 258.06 L 172.40 258.41 L 172.75 258.41 L 173.11 258.41 L 173.46 258.76 L 173.81 258.76 L 174.16 258.76 L 174.51 258.76 L 174.86 258.76 L 175.21 258.76 L 175.56 258.76 L 175.91 258.76 L 176.26 258.76 L 176.61 258.76 L 176.96 258.76 L 177.31 258.76 L 177.66 258.76 L 178.01 258.76 L 178.36 258.76 L 178.71 258.76 L 179.06 258.76 L 179.41 258.76 L 179.76 258.76 L 180.11 258.76 L 180.46 258.76 L 180.81 258.76 L 181.16 258.76 L 181.51 258.76 L 181.86 258.76 L 182.21 258.76 L 182.56 258.76 L 182.91 258.76 L 183.26 258.76 L 183.61 258.76 L 183.96 258.76 L 184.32 258.76 L 184.67 258.76 L 185.02 258.76 L 185.37 258.76 L 185.72 258.76 L 186.07 258.76 L 186.42 258.76 L 186.77 259.11 L 187.12 259.46 L 187.47 259.46 L 187.82 259.46 L 188.17 259.46 L 188.52 259.81 L 188.87 260.16 L 189.22 260.16 L 189.57 260.51 L 189.92 260.86 L 190.27 261.21 L 190.27 261.56 L 190.62 261.91 L 190.62 262.26 L 190.97 262.61 L 190.97 262.96 L 190.97 263.31 L 190.97 263.66 L 190.97 264.01 L 190.97 264.36 L 190.97 264.71 L 190.97 265.06 L 190.97 265.41 L 190.97 265.76 L 190.97 266.11 L 190.62 266.46 L 190.62 266.82 L 190.62 267.17 L 190.27 267.52 L 190.27 267.87 L 190.27 268.22 L 190.27 268.57 L 190.27 268.92 L 190.27 269.27 L 189.92 269.62 L 189.92 269.97 L 189.92 270.32 L 189.92 270.67 L 189.57 271.02 L 189.57 271.37 L 189.57 271.72 L 189.57 272.07 L 189.57 272.42 L 189.57 272.77 L 189.57 273.12 L 189.22 273.47 L 189.22 273.82 L 189.22 274.17 L 189.22 274.52 L 189.22 274.87 L 189.22 275.22 L 189.22 275.57 L 189.57 275.92 L 189.57 276.27 L 189.57 276.62 L 189.57 276.97 L 189.92 277.32 L 189.92 277.68 L 190.27 278.03 L 190.62 278.38 L 190.62 278.73 L 190.97 279.08 L 191.32 279.43 L 191.67 279.78 L 192.02 280.13 L 192.37 280.13 L 192.72 280.48 L 193.07 280.48 L 193.42 280.83 L 193.77 280.83 L 194.12 280.83 L 194.47 280.83 L 194.82 280.83 L 195.18 280.83 L 195.53 280.83 L 195.88 280.83 L 196.23 280.48 L 196.58 280.48 L 196.93 280.48 L 197.28 280.13 L 197.63 280.13 L 197.98 279.78 L 198.33 279.78 L 198.68 279.43 L 199.03 279.43 L 199.38 279.08 L 199.73 279.08 L 200.08 278.73 L 200.43 278.73 L 200.78 278.38 L 201.13 278.03 L 201.48 278.03 L 201.83 277.68 L 202.18 277.32 L 202.53 277.32 L 202.88 277.32 L 203.23 276.97 L 203.58 276.62 L 203.93 276.27 L 204.28 275.92 L 204.63 275.92 L 204.98 275.92 L 205.33 275.57 L 205.68 275.22 L 206.04 274.87 L 206.39 274.52 L 206.74 274.52 L 207.09 274.17 L 207.44 273.82 L 207.79 273.47 L 208.14 273.12 L 208.49 272.77 L 208.84 272.42 L 209.19 272.07 L 209.19 271.72 L 209.54 271.37 L 209.89 271.02 L 209.89 270.67 L 210.24 270.32 L 210.59 269.97 L 210.59 269.62 L 210.94 269.27 L 211.29 268.92 L 211.29 268.57 L 211.29 268.22 L 211.64 267.87 L 211.99 267.52 L 211.99 267.17 L 211.99 266.82 L 212.34 266.46 L 212.69 266.11 L 212.69 265.76 L 213.04 265.41 L 213.04 265.06 L 213.39 264.71 L 213.39 264.36 L 213.74 264.01 L 214.09 263.66 L 214.44 263.31 L 214.79 262.96 L 215.14 262.61 L 215.49 262.26 L 215.84 262.26 L 216.19 262.26 L 216.54 262.26 L 216.89 262.61 L 217.25 262.96 L 217.60 262.96 L 217.95 263.31 L 217.95 263.66 L 218.30 264.01 L 218.65 264.36 L 218.65 264.71 L 219.00 265.06 L 219.35 265.41 L 219.35 265.76 L 219.70 266.11 L 220.05 266.46 L 220.05 266.82 L 220.40 267.17 L 220.40 267.52 L 220.75 267.87 L 220.75 268.22 L 221.10 268.57 L 221.10 268.92 L 221.45 269.27 L 221.45 269.62 L 221.45 269.97 L 221.80 270.32 L 221.80 270.67 L 222.15 271.02 L 222.15 271.37 L 222.50 271.72 L 222.50 272.07 L 222.85 272.42 L 222.85 272.77 L 223.20 273.12 L 223.20 273.47 L 223.55 273.82 L 223.55 274.17 L 223.55 274.52 L 223.90 274.87 L 223.90 275.22 L 224.25 275.57 L 224.25 275.92 L 224.60 276.27 L 224.60 276.62 L 224.60 276.97 L 224.95 277.32 L 225.30 277.68 L 225.30 278.03 L 225.30 278.38 L 225.65 278.73 L 225.65 279.08 L 226.00 279.43 L 226.00 279.78 L 226.35 280.13 L 226.35 280.48 L 226.70 280.83 L 226.70 281.18 L 226.70 281.53 L 227.05 281.88 L 227.40 282.23 L 227.40 282.58 L 227.75 282.93 L 227.75 283.28 L 228.11 283.63 L 228.11 283.98 L 228.46 284.33 L 228.46 284.68 L 228.81 285.03 L 228.81 285.38 L 229.16 285.73 L 229.51 286.08 L 229.51 286.43 L 229.86 286.78 L 230.21 287.13 L 230.21 287.48 L 230.56 287.83 L 230.91 288.18 L 230.91 288.54 L 231.26 288.54 L 231.61 288.89 L 231.61 289.24 L 231.61 289.59 L 231.96 289.59 L 232.31 289.94 L 232.31 290.29 L 232.66 290.29 L 233.01 290.64 L 233.36 290.99 L 233.71 291.34 L 234.06 291.69 L 234.41 292.04 L 234.76 292.39 L 235.11 292.39 L 235.46 292.39 L 235.81 292.74 L 236.16 293.09 L 236.51 293.09 L 236.86 293.09 L 237.21 293.09 L 237.56 293.44 L 237.91 293.44 L 238.26 293.44 L 238.61 293.44 L 238.96 293.44 L 239.32 293.44 L 239.67 293.44 L 240.02 293.44 L 240.37 293.44 L 240.72 293.09 L 241.07 293.09 L 241.42 293.09 L 241.77 293.09 L 242.12 292.74 L 242.47 292.74 L 242.82 292.39 L 243.17 292.39 L 243.52 292.04 L 243.87 291.69 L 244.22 291.69 L 244.22 291.34 L 244.57 290.99 L 244.92 290.99 L 244.92 290.64 L 245.27 290.29 L 245.62 289.94 L 245.62 289.59 L 245.62 289.24 L 245.97 288.89 L 246.32 288.54 L 246.32 288.18 L 246.32 287.83 L 246.32 287.48 L 246.32 287.13 L 246.67 286.78 L 246.67 286.43 L 247.02 286.08 L 247.02 285.73 L 247.02 285.38 L 247.02 285.03 L 247.02 284.68 L 247.02 284.33 L 247.02 283.98 L 247.02 283.63 L 247.02 283.28 L 247.02 282.93 L 247.02 282.58 L 247.02 282.23 L 247.02 281.88 L 247.02 281.53 L 247.02 281.18 L 247.02 280.83 L 247.02 280.48 L 247.02 280.13 L 247.02 279.78 L 247.02 279.43 L 247.02 279.08 L 247.02 278.73 L 247.02 278.38 L 247.02 278.03 L 247.02 277.68 L 247.02 277.32 L 247.02 276.97 L 247.02 276.62 L 246.67 276.27 L 246.67 275.92 L 246.67 275.57 L 246.32 275.22 L 246.32 274.87 L 246.32 274.52 L 246.32 274.17 L 246.32 273.82 L 246.32 273.47 L 246.32 273.12 L 245.97 272.77 L 245.97 272.42 L 245.97 272.07 L 245.62 271.72 L 245.62 271.37 L 245.62 271.02 L 245.62 270.67 L 245.62 270.32 L 245.27 269.97 L 245.27 269.62 L 244.92 269.27 L 244.92 268.92 L 244.92 268.57 L 244.92 268.22 L 244.92 267.87 L 244.57 267.52 L 244.57 267.17 L 244.22 266.82 L 244.22 266.46 L 244.22 266.11 L 244.22 265.76 L 243.87 265.41 L 243.87 265.06 L 243.52 264.71 L 243.52 264.36 L 243.52 264.01 L 243.17 263.66 L 243.17 263.31 L 243.17 262.96 L 242.82 262.61 L 242.82 262.26 L 242.82 261.91 L 242.47 261.56 L 242.47 261.21 L 242.12 260.86 L 242.12 260.51 L 241.77 260.16 L 241.77 259.81 L 241.77 259.46 L 241.42 259.11 L 241.42 258.76 L 241.07 258.41 L 241.07 258.06 L 240.72 257.71 L 240.72 257.36 L 240.37 257.01 L 240.37 256.66 L 240.02 256.31 L 240.02 255.96 L 239.67 255.61 L 239.67 255.25 L 239.32 254.90 L 239.32 254.55 L 238.96 254.20 L 238.96 253.85 L 238.61 253.50 L 238.26 253.15 L 238.26 252.80 L 238.26 252.45 L 237.91 252.10 L 237.56 251.75 L 237.56 251.40 L 237.21 251.05 L 237.56 250.70 L 237.91 250.35 L 238.26 250.70 L 238.61 250.70 L 238.96 250.70 L 239.32 251.05 L 239.67 251.05 L 240.02 251.05 L 240.37 251.05 L 240.72 251.40 L 241.07 251.40 L 241.42 251.75 L 241.77 251.75 L 242.12 251.75 L 242.47 252.10 L 242.82 252.10 L 243.17 252.45 L 243.52 252.45 L 243.87 252.45 L 244.22 252.80 L 244.57 252.80 L 244.92 253.15 L 245.27 253.15 L 245.62 253.15 L 245.97 253.50 L 246.32 253.50 L 246.67 253.85 L 247.02 253.85 L 247.37 253.85 L 247.72 254.20 L 248.07 254.20 L 248.42 254.55 L 248.77 254.55 L 249.12 254.90 L 249.47 254.90 L 249.82 255.25 L 250.18 255.25 L 250.53 255.25 L 250.88 255.61 L 251.23 255.96 L 251.58 255.96 L 251.93 255.96 L 252.28 255.96 L 252.63 256.31 L 252.98 256.66 L 253.33 256.66 L 253.68 256.66 L 254.03 257.01 L 254.38 257.36 L 254.73 257.36 L 255.08 257.36 L 255.43 257.71 L 255.78 257.71 L 256.13 258.06 L 256.48 258.06 L 256.83 258.06 L 257.18 258.41 L 257.53 258.76 L 257.88 258.76 L 258.23 258.76 L 258.58 259.11 L 258.93 259.46 L 259.28 259.46 L 259.63 259.46 L 259.98 259.81 L 260.33 260.16 L 260.68 260.16 L 261.04 260.16 L 261.39 260.51 L 261.74 260.86 L 262.09 260.86 L 262.44 260.86 L 262.79 260.86 L 263.14 261.21 L 263.49 261.56 L 263.84 261.56 L 264.19 261.56 L 264.54 261.91 L 264.89 262.26 L 265.24 262.26 L 265.59 262.26 L 265.94 262.61 L 266.29 262.96 L 266.64 262.96 L 266.99 262.96 L 267.34 263.31 L 267.69 263.66 L 268.04 263.66 L 268.39 263.66 L 268.74 264.01 L 269.09 264.36 L 269.44 264.36 L 269.79 264.71 L 270.14 265.06 L 270.49 265.06 L 270.84 265.06 L 271.19 265.41 L 271.54 265.41 L 271.89 265.76 L 272.25 265.76 L 272.60 265.76 L 272.95 265.76 L 273.30 265.76 L 273.65 265.76 L 274.00 265.76 L 274.35 265.76 L 274.70 265.76 L 275.05 265.76 L 275.40 265.76 L 275.75 265.76 L 276.10 265.76 L 276.45 265.76 L 276.80 265.76 L 277.15 265.76 L 277.50 265.76 L 277.85 265.76 L 278.20 265.76 L 278.55 265.76 L 278.90 265.76 L 279.25 265.76 L 279.60 265.76 L 279.95 265.76 L 280.30 265.76 L 280.65 265.76 L 281.00 265.41 L 281.35 265.41 L 281.70 265.41 L 282.05 265.41 L 282.40 265.41 L 282.75 265.41 L 283.11 265.41 L 283.46 265.41 L 283.81 265.06 L 284.16 265.06 L 284.51 265.06 L 284.86 265.06 L 285.21 265.06 L 285.56 265.06 L 285.91 265.06 L 286.26 265.06 L 286.61 265.06 L 286.96 265.06 L 287.31 264.71 L 287.66 264.71 L 288.01 264.71 L 288.36 264.71 L 288.71 264.71 L 289.06 264.36 L 289.41 264.36 L 289.76 264.36 L 290.11 264.36 L 290.46 264.36 L 290.81 264.36 L 291.16 264.36 L 291.51 264.36 L 291.86 264.36 L 292.21 264.01 L 292.56 264.01 L 292.91 264.01 L 293.26 264.01 L 293.61 263.66 L 293.96 263.66 L 294.32 263.66 L 294.67 263.66 L 295.02 263.66 L 295.37 263.66 L 295.72 263.66 L 296.07 263.66 L 296.42 263.31 L 296.77 263.31 L 297.12 263.31 L 297.47 263.31 L 297.82 262.96 L 298.17 262.96 L 298.52 262.96 L 298.87 262.96 L 299.22 262.96 L 299.57 262.96 L 299.92 262.61 L 300.27 262.61 L 300.62 262.26 L 300.97 262.26 L 301.32 262.26 L 301.67 262.26 L 302.02 262.26 L 302.37 262.26 L 302.72 261.91 L 303.07 261.91 L 303.42 261.91 L 303.77 261.56 L 304.12 261.91 L 304.47 261.91 L 304.82 261.91 L 305.18 262.26 L 305.53 262.26 L 305.88 262.26 L 306.23 262.26 L 306.58 262.26 L 306.93 262.26 L 307.28 262.61 L 307.63 262.61 L 307.98 262.96 L 308.33 262.96 L 308.68 262.96 L 309.03 262.96 L 309.38 262.96 L 309.73 262.96 L 310.08 263.31 L 310.43 263.31 L 310.78 263.31 L 311.13 263.66 L 311.48 263.66 L 311.83 263.66 L 312.18 263.66 L 312.53 263.66 L 312.88 263.66 L 313.23 264.01 L 313.58 264.01 L 313.93 264.36 L 314.28 264.36 L 314.63 264.36 L 314.98 264.36 L 315.33 264.36 L 315.68 264.36 L 316.04 264.71 L 316.39 264.71 L 316.74 265.06 L 317.09 265.06 L 317.44 265.06 L 317.79 265.06 L 318.14 265.06 L 318.49 265.06 L 318.84 265.41 L 319.19 265.41 L 319.54 265.76 L 319.89 265.76 L 320.24 265.76 L 320.59 265.76 L 320.94 266.11 L 321.29 266.11 L 321.64 266.11 L 321.99 266.46 L 322.34 266.46 L 322.69 266.46 L 323.04 266.46 L 323.39 266.46 L 323.74 266.46 L 324.09 266.46 L 324.44 266.46 L 324.79 266.46 L 325.14 266.46 L 325.49 266.46 L 325.84 266.46 L 326.19 266.46 L 326.54 266.46 L 326.89 266.46 L 327.25 266.46 L 327.60 266.11 L 327.95 266.11 L 328.30 266.11 L 328.65 265.76 L 329.00 265.76 L 329.35 265.76 L 329.70 265.76 L 330.05 265.41 L 330.40 265.41 L 330.75 265.06 L 331.10 265.06 L 331.45 265.06 L 331.80 264.71 L 332.15 264.71 L 332.50 264.36 L 332.85 264.36 L 333.20 264.36 L 333.55 264.01 L 333.90 264.01 L 334.25 263.66 L 334.60 263.66 L 334.95 263.31 L 335.30 263.31 L 335.65 262.96 L 336.00 262.96 L 336.35 262.61 L 336.70 262.61 L 337.05 262.26 L 337.40 262.26 L 337.75 261.91 L 338.11 261.56 L 338.46 261.56 L 338.81 261.91 L 338.81 262.26 L 338.81 262.61 L 338.81 262.96 L 338.81 263.31 L 338.81 263.66 L 338.81 264.01 L 338.81 264.36 L 338.46 264.71 L 338.46 265.06 L 338.11 265.41 L 338.11 265.76 L 338.11 266.11 L 338.11 266.46 L 338.11 266.82 L 338.11 267.17 L 338.11 267.52 L 338.11 267.87 L 338.11 268.22 L 338.11 268.57 L 338.11 268.92 L 338.11 269.27 L 338.11 269.62 L 338.11 269.97 L 338.11 270.32 L 338.11 270.67 L 338.11 271.02 L 338.11 271.37 L 338.11 271.72 L 338.11 272.07 L 338.11 272.42 L 337.75 272.77 L 337.75 273.12 L 337.75 273.47 L 337.75 273.82 L 337.40 274.17 L 337.40 274.52 L 337.40 274.87 L 337.40 275.22 L 337.40 275.57 L 337.40 275.92 L 337.40 276.27 L 337.40 276.62 L 337.40 276.97 L 337.40 277.32 L 337.40 277.68 L 337.40 278.03 L 337.40 278.38 L 337.40 278.73 L 337.40 279.08 L 337.40 279.43 L 337.40 279.78 L 337.40 280.13 L 337.40 280.48 L 337.05 280.83 L 337.05 281.18 L 337.05 281.53 L 337.05 281.88 L 337.05 282.23 L 337.05 282.58 L 337.05 282.93 L 337.05 283.28 L 336.70 283.63 L 336.70 283.98 L 336.70 284.33 L 336.70 284.68 L 336.70 285.03 L 336.70 285.38 L 336.70 285.73 L 336.70 286.08 L 336.70 286.43 L 336.70 286.78 L 336.70 287.13 L 336.70 287.48 L 336.70 287.83 L 336.70 288.18 L 336.70 288.54 L 336.70 288.89 L 336.35 289.24 L 336.35 289.59 L 336.35 289.94 L 336.35 290.29 L 336.35 290.64 L 336.35 290.99 L 336.35 291.34 L 336.35 291.69 L 336.00 292.04 L 336.00 292.39 L 336.00 292.74 L 336.00 293.09 L 336.00 293.44 L 336.00 293.79 L 336.00 294.14 L 336.00 294.49 L 336.00 294.84 L 336.00 295.19 L 336.00 295.54 L 336.00 295.89 L 336.00 296.24 L 336.00 296.59 L 336.00 296.94 L 336.00 297.29 L 336.00 297.64 L 335.65 297.99 L 335.65 298.34 L 335.65 298.69 L 335.65 299.04 L 335.65 299.39 L 335.65 299.75 L 335.65 300.10 L 335.65 300.45 L 335.30 300.80 L 335.30 301.15 L 335.30 301.50 L 335.30 301.85 L 335.30 302.20 L 335.30 302.55 L 335.30 302.90 L 335.30 303.25 L 335.30 303.60 L 335.30 303.95 L 335.30 304.30 L 335.30 304.65 L 335.30 305.00 L 335.30 305.35 L 335.30 305.70 L 335.30 306.05 L 335.30 306.40 L 334.95 306.75 L 334.95 307.10 L 334.95 307.45 L 334.95 307.80 L 334.95 308.15 L 334.95 308.50 L 334.95 308.85 L 334.95 309.20 L 334.95 309.55 L 334.60 309.90 L 334.60 310.25 L 334.60 310.61 L 334.60 310.96 L 334.60 311.31 L 334.60 311.66 L 334.60 312.01 L 334.60 312.36 L 334.60 312.71 L 334.60 313.06 L 334.60 313.41 L 334.60 313.76 L 334.60 314.11 L 334.60 314.46 L 334.60 314.81 L 334.60 315.16 L 334.60 315.51 L 334.25 315.86 L 334.25 316.21 L 334.25 316.56 L 334.25 316.91 L 334.25 317.26 L 334.25 317.61 L 334.25 317.96 L 334.25 318.31 L 333.90 318.66 L 333.90 319.01 L 333.90 319.36 L 333.90 319.71 L 333.90 320.06 L 333.90 320.41 L 333.90 320.76 L 333.90 321.11 L 333.90 321.46 L 333.90 321.82 L 333.90 322.17 L 333.90 322.52 L 333.90 322.87 L 333.90 323.22 L 333.90 323.57 L 333.90 323.92 L 333.90 324.27 L 333.55 324.62 L 333.55 324.97 L 333.55 325.32 L 333.55 325.67 L 333.55 326.02 L 333.55 326.37 L 333.55 326.72 L 333.55 327.07 L 333.55 327.42 L 333.20 327.77 L 333.20 328.12 L 333.20 328.47 L 333.20 328.82 L 333.20 329.17 L 333.20 329.52 L 333.20 329.87 L 333.20 330.22 L 333.20 330.57 L 333.20 330.92 L 333.20 331.27 L 333.20 331.62 L 333.20 331.97 L 333.20 332.32 L 333.20 332.68 L 333.20 333.03 L 333.20 333.38 L 333.20 333.73 L 332.85 334.08 L 332.85 334.43 L 332.85 334.78 L 332.85 335.13 L 332.85 335.48 L 332.85 335.83 L 332.85 336.18 L 332.85 336.53 L 332.85 336.88 L 332.85 337.23 L 332.50 337.58 L 332.50 337.93 L 332.50 338.28 L 332.50 338.63 L 332.50 338.98 L 332.50 339.33 L 332.50 339.68 L 332.50 340.03 L 332.50 340.38 L 332.50 340.73 L 332.50 341.08 L 332.50 341.43 L 332.50 341.78 L 332.50 342.13 L 332.50 342.48 L 332.50 342.83 L 332.50 343.18 L 332.50 343.54 L 332.15 343.89 L 332.15 344.24 L 332.15 344.59 L 332.15 344.94 L 332.15 345.29 L 332.15 345.64 L 332.15 345.99 L 332.15 346.34 L 332.15 346.69 L 332.15 347.04 L 331.80 347.39 L 331.80 347.74 L 331.80 348.09 L 331.80 348.44 L 331.80 348.79 L 331.80 349.14 L 331.80 349.49 L 331.80 349.84 L 331.80 350.19 L 331.80 350.54 L 331.80 350.89 L 331.80 351.24 L 331.80 351.59 L 331.80 351.94 L 331.80 352.29 L 331.80 352.64 L 331.80 352.99 L 331.80 353.34 L 331.45 353.69 L 331.45 354.04 L 331.45 354.39 L 331.45 354.75 L 331.45 355.10 L 331.45 355.45 L 331.45 355.80 L 331.45 356.15 L 331.45 356.50 L 331.45 356.85 L 331.10 357.20 L 331.10 357.55 L 331.10 357.90 L 331.10 358.25 L 331.10 358.60 L 331.10 358.95 L 331.10 359.30 L 331.10 359.65 L 331.10 360.00 L 331.10 360.35 L 331.10 360.70 L 331.10 361.05 L 331.10 361.40 L 331.10 361.75 L 331.10 362.10 L 331.10 362.45 L 331.10 362.80 L 331.10 363.15 L 330.75 363.50 L 330.75 363.85 L 330.75 364.20 L 330.75 364.55 L 330.75 364.90 L 330.75 365.25 L 330.75 365.61 L 330.75 365.96 L 330.75 366.31 L 330.75 366.66 L 330.75 367.01 L 330.40 367.36 L 330.40 367.71 L 330.40 368.06 L 330.40 368.41 L 330.40 368.76 L 330.40 369.11 L 330.40 369.46 L 330.40 369.81 L 330.40 370.16 L 330.40 370.51 L 330.40 370.86 L 330.40 371.21 L 330.40 371.56 L 330.40 371.91 L 330.40 372.26 L 330.40 372.61 L 330.40 372.96 L 330.40 373.31 L 330.40 373.66 L 330.05 374.01 L 330.05 374.36 L 330.05 374.71 L 330.05 375.06 L 330.05 375.41 L 330.05 375.76 L 330.05 376.11 L 330.05 376.46 L 330.05 376.82 L 330.05 377.17 L 330.05 377.52 L 330.05 377.87 L 330.05 378.22 L 330.05 378.57 L 330.05 378.92 L 330.05 379.27 L 330.05 379.62 L 330.05 379.97 L 329.70 380.32 L 329.70 380.67 L 329.70 381.02 L 329.70 381.37 L 329.70 381.72 L 329.70 382.07 L 329.70 382.42 L 329.70 382.77 L 329.70 383.12 L 329.70 383.47 L 329.70 383.82 L 329.70 384.17 L 329.70 384.52 L 329.70 384.87 L 329.35 385.22 L 329.35 385.57 L 329.35 385.92 L 329.35 386.27 L 329.35 386.62 L 329.35 386.97 L 329.35 387.32 L 329.35 387.68 L 329.35 388.03 L 329.35 388.38 L 329.35 388.73 L 329.35 389.08 L 329.35 389.43 L 329.35 389.78 L 329.35 390.13 L 329.35 390.48 L 329.35 390.83 L 329.35 391.18 L 329.35 391.53 L 329.35 391.88 L 329.35 392.23 L 329.35 392.58 L 329.35 392.93 L 329.00 393.28 L 329.00 393.63 L 329.00 393.98 L 329.00 394.33 L 329.00 394.68 L 329.00 395.03 L 329.00 395.38 L 329.00 395.73 L 329.00 396.08 L 329.00 396.43 L 329.00 396.78 L 329.00 397.13 L 328.65 397.48 L 328.65 397.83 L 328.65 398.18 L 328.65 398.54 L 328.65 398.89 L 328.65 399.24 L 328.65 399.59 L 328.65 399.94 L 328.65 400.29 L 328.65 400.64 L 328.65 400.99 L 328.65 401.34 L 328.65 401.69 L 328.65 402.04 L 328.65 402.39 L 328.65 402.74 L 328.65 403.09 L 328.65 403.44 L 328.65 403.79 L 328.65 404.14 L 328.65 404.49 L 328.65 404.84 L 328.65 405.19 L 328.65 405.54 L 328.30 405.89 L 328.30 406.24 L 328.30 406.59 L 328.30 406.94 L 328.30 407.29 L 328.30 407.64 L 328.30 407.99 L 328.30 408.34 L 328.30 408.69 L 328.30 409.04 L 328.30 409.39 L 328.30 409.75 L 328.30 410.10 L 328.30 410.45 L 328.30 410.80 L 327.95 411.15 L 327.95 411.50 L 327.95 411.85 L 327.95 412.20 L 327.95 412.55 L 327.95 412.90 L 327.95 413.25 L 327.95 413.60 L 327.95 413.95 L 327.95 414.30 L 327.95 414.65 L 327.95 415.00 L 327.95 415.35 L 327.95 415.70 L 327.95 416.05 L 327.95 416.40 L 327.95 416.75 L 327.95 417.10 L 327.95 417.45 L 327.95 417.80 L 327.95 418.15 L 327.95 418.50 L 327.95 418.85 L 327.95 419.20 L 327.95 419.55 L 327.95 419.90 L 327.95 420.25 L 327.95 420.61 L 327.95 420.96 L 327.60 421.31 L 327.60 421.66 L 327.60 422.01 L 327.60 422.36 L 327.60 422.71 L 327.60 423.06 L 327.60 423.41 L 327.60 423.76 L 327.60 424.11 L 327.60 424.46 L 327.60 424.81 L 327.60 425.16 L 327.60 425.51 L 327.60 425.86 L 327.60 426.21 L 327.60 426.56 L 327.60 426.91 L 327.60 427.26 L 327.60 427.61 L 327.60 427.96 L 327.25 428.31 L 327.25 428.66 L 327.25 429.01 L 327.25 429.36 L 327.25 429.71 L 327.25 430.06 L 327.25 430.41 L 327.25 430.76 L 327.25 431.11 L 327.25 431.46 L 327.25 431.82 L 327.25 432.17 L 327.25 432.52 L 327.25 432.87 L 327.25 433.22 L 327.25 433.57 L 327.25 433.92 L 327.25 434.27 L 327.25 434.62 L 327.25 434.97 L 327.25 435.32 L 327.25 435.67 L 327.25 436.02 L 327.25 436.37 L 327.25 436.72 L 327.25 437.07 L 327.25 437.42 L 327.25 437.77 L 327.25 438.12 L 327.25 438.47 L 327.25 438.82 L 327.25 439.17 L 327.25 439.52 L 327.25 439.87 L 327.25 440.22 L 327.25 440.57 L 327.25 440.92 L 327.25 441.27 L 327.25 441.62 L 327.25 441.97 L 327.25 442.32 L 327.25 442.68 L 327.25 443.03 L 327.25 443.38 L 327.25 443.73 L 327.25 444.08 L 327.25 444.43 L 327.25 444.78 L 327.25 445.13 L 327.25 445.48 L 327.25 445.83 L 327.25 446.18 L 327.25 446.53 L 327.25 446.88 L 327.25 447.23 L 327.25 447.58 L 327.25 447.93 L 327.25 448.28 L 327.25 448.63 L 327.25 448.98 L 327.25 449.33 L 327.25 449.68 L 327.25 450.03 L 327.25 450.38 L 327.25 450.73 L 327.25 451.08 L 327.25 451.43 L 327.25 451.78 L 327.25 452.13 L 327.25 452.48 L 327.25 452.83 L 327.25 453.18 L 327.25 453.54 L 327.25 453.89 L 327.25 454.24 L 327.25 454.59 L 327.25 454.94 L 327.25 455.29 L 327.25 455.64 L 327.25 455.99 L 327.25 456.34 L 327.25 456.69 L 327.25 457.04 L 327.25 457.39 L 327.25 457.74 L 327.25 458.09 L 327.25 458.44 L 327.25 458.79 L 327.25 459.14 L 327.25 459.49 L 327.25 459.84 L 327.25 460.19 L 327.25 460.54 L 327.25 460.89 L 327.25 461.24 L 327.60 461.59 L 327.60 461.94 L 327.60 462.29 L 327.60 462.64 L 327.60 462.99 L 327.60 463.34 L 327.60 463.69 L 327.60 464.04 L 327.95 464.39 L 327.95 464.75 L 327.95 465.10 L 327.95 465.45 L 327.95 465.80 L 327.95 466.15 L 327.95 466.50 L 327.95 466.85 L 328.30 467.20 L 328.30 467.55 L 328.30 467.90 L 328.65 468.25 L 328.65 468.60 L 328.65 468.95 L 329.00 469.30 L 329.35 469.65 L 329.35 470.00 L 329.70 470.00 L 330.05 470.00 L 330.40 470.00 L 330.75 470.00 L 331.10 470.00 L 331.45 470.00 L 331.80 470.00 L 332.15 470.00 L 332.50 470.00 L 332.85 470.00 L 333.20 470.00 L 333.55 470.00 L 333.90 470.00 L 334.25 469.65 L 334.60 469.30 L 334.95 469.30 L 335.30 468.95 L 335.65 468.95 L 336.00 468.60 L 336.35 468.60 L 336.70 468.60 L 337.05 468.25 L 337.40 467.90 L 337.75 467.90 L 338.11 467.90 L 338.46 467.55 L 338.81 467.20 L 339.16 467.20 L 339.51 466.85 L 339.86 466.85 L 340.21 466.50 L 340.56 466.50 L 340.91 466.15 L 341.26 465.80 L 341.61 465.80 L 341.96 465.45 L 342.31 465.10 L 342.66 465.10 L 343.01 464.75 L 343.36 464.39 L 343.71 464.39 L 344.06 464.04 L 344.41 463.69 L 344.76 463.69 L 345.11 463.34 L 345.46 462.99 L 345.81 462.64 L 346.16 462.29 L 346.51 462.29 L 346.86 461.94 L 347.21 461.59 L 347.56 461.59 L 347.91 461.24 L 348.26 460.89 L 348.61 460.54 L 348.96 460.19 L 349.32 460.19 L 349.67 459.84 L 350.02 459.49 L 350.37 459.14 L 350.72 459.14 L 351.07 458.79 L 351.42 458.44 L 351.77 458.09 L 352.12 457.74 L 352.47 457.74 L 352.82 457.39 L 353.17 457.04 L 353.52 456.69 L 353.87 456.34 L 354.22 455.99 L 354.57 455.64 L 354.92 455.64 L 355.27 455.29 L 355.62 454.94 L 355.97 454.59 L 356.32 454.24 L 356.67 454.24 L 357.02 453.89 L 357.37 453.54 L 357.72 453.18 L 358.07 452.83 L 358.42 452.48 L 358.77 452.13 L 359.12 451.78 L 359.47 451.43 L 359.82 451.43 L 360.18 451.08 L 360.53 450.73 L 360.88 450.38 L 361.23 450.03 L 361.58 449.68 L 361.93 449.33 L 362.28 449.33 L 362.63 448.98 L 362.98 448.63 L 363.33 448.28 L 363.68 447.93 L 364.03 447.58 L 364.38 447.23 L 364.73 446.88 L 365.08 446.53 L 365.43 446.18 L 365.78 445.83 L 366.13 445.48 L 366.48 445.13 L 366.83 445.13 L 367.18 444.78 L 367.53 444.43 L 367.88 444.08 L 368.23 443.73 L 368.58 443.38 L 368.93 443.03 L 369.28 442.68 L 369.63 442.32 L 369.98 441.97 L 370.33 441.62 L 370.68 441.62 L 371.04 441.27 L 371.39 440.92 L 371.74 440.57 L 372.09 440.22 L 372.44 439.87 L 372.79 439.52 L 373.14 439.17 L 373.49 438.82 L 373.84 438.47 L 374.19 438.12 L 374.54 437.77 L 374.89 437.42 L 375.24 437.07 L 375.59 436.72 L 375.59 436.37 L 375.59 436.02 L 375.59 435.67 L 375.24 435.32 L 375.24 434.97 L 375.24 434.62 L 375.24 434.27 L 375.24 433.92 L 374.89 433.57 L 374.89 433.22 L 374.89 432.87 L 374.89 432.52 L 374.89 432.17 L 374.89 431.82 L 374.89 431.46 L 374.89 431.11 L 374.89 430.76 L 374.89 430.41 L 374.89 430.06 L 374.89 429.71 L 374.54 429.36 L 374.54 429.01 L 374.89 428.66 L 374.54 428.31 L 374.54 427.96 L 374.54 427.61 L 374.54 427.26 L 374.19 426.91 L 374.19 426.56 L 374.19 426.21 L 374.19 425.86 L 374.19 425.51 L 374.19 425.16 L 374.19 424.81 L 374.19 424.46 L 374.19 424.11 L 374.19 423.76 L 374.19 423.41 L 374.19 423.06 L 374.19 422.71 L 374.19 422.36 L 374.19 422.01 L 374.19 421.66 L 374.19 421.31 L 374.19 420.96 L 373.84 420.61 L 373.49 420.25 L 373.49 419.90 L 373.84 419.55 L 373.49 419.20 L 373.84 418.85 L 373.49 418.50 L 373.49 418.15 L 373.49 417.80 L 373.49 417.45 L 373.49 417.10 L 373.49 416.75 L 373.49 416.40 L 373.49 416.05 L 373.49 415.70 L 373.49 415.35 L 373.49 415.00 L 373.49 414.65 L 373.49 414.30 L 373.49 413.95 L 373.49 413.60 L 373.49 413.25 L 373.14 412.90 L 373.14 412.55 L 373.14 412.20 L 373.14 411.85 L 373.14 411.50 L 372.79 411.15 L 372.79 410.80 L 372.79 410.45 L 373.14 410.10 L 372.79 409.75 L 372.79 409.39 L 372.79 409.04 L 372.79 408.69 L 372.79 408.34 L 372.79 407.99 L 372.79 407.64 L 372.79 407.29 L 372.79 406.94 L 372.79 406.59 L 372.79 406.24 L 372.79 405.89 L 372.79 405.54 L 372.79 405.19 L 372.79 404.84 L 372.79 404.49 L 372.79 404.14 L 372.79 403.79 L 372.44 403.44 L 372.44 403.09 L 372.44 402.74 L 372.44 402.39 L 372.09 402.04 L 372.09 401.69 L 372.44 401.34 L 372.44 400.99 L 372.44 400.64 L 372.44 400.29 L 372.09 399.94 L 372.09 399.59 L 372.09 399.24 L 372.09 398.89 L 372.09 398.54 L 372.09 398.18 L 372.09 397.83 L 372.09 397.48 L 372.09 397.13 L 372.09 396.78 L 372.09 396.43 L 372.09 396.08 L 372.09 395.73 L 372.09 395.38 L 372.09 395.03 L 372.09 394.68 L 372.09 394.33 L 372.09 393.98 L 372.09 393.63 L 372.09 393.28 L 372.09 392.93 L 372.09 392.58 L 372.09 392.23 L 372.09 391.88 L 371.74 391.53 L 371.74 391.18 L 371.74 390.83 L 371.74 390.48 L 371.74 390.13 L 371.39 389.78 L 371.39 389.43 L 371.74 389.08 L 371.74 388.73 L 371.39 388.38 L 371.39 388.03 L 371.74 387.68 L 371.74 387.32 L 371.74 386.97 L 371.74 386.62 L 371.39 386.27 L 371.39 385.92 L 371.39 385.57 L 371.39 385.22 L 371.39 384.87 L 371.39 384.52 L 371.39 384.17 L 371.39 383.82 L 371.39 383.47 L 371.39 383.12 L 371.39 382.77 L 371.39 382.42 L 371.39 382.07 L 371.39 381.72 L 371.39 381.37 L 371.39 381.02 L 371.39 380.67 L 371.39 380.32 L 371.39 379.97 L 371.39 379.62 L 371.39 379.27 L 371.39 378.92 L 371.39 378.57 L 371.39 378.22 L 371.39 377.87 L 371.39 377.52 L 371.39 377.17 L 371.39 376.82 L 371.39 376.46 L 371.39 376.11 L 371.39 375.76 L 371.39 375.41 L 371.39 375.06 L 371.39 374.71 L 371.39 374.36 L 371.39 374.01 L 371.39 373.66 L 371.39 373.31 L 371.39 372.96 L 371.39 372.61 L 371.39 372.26 L 371.39 371.91 L 371.39 371.56 L 371.39 371.21 L 371.04 370.86 L 371.04 370.51 L 371.04 370.16 L 371.04 369.81 L 371.04 369.46 L 371.04 369.11 L 371.04 368.76 L 371.04 368.41 L 371.04 368.06 L 371.04 367.71 L 371.04 367.36 L 371.04 367.01 L 371.04 366.66 L 371.04 366.31 L 371.04 365.96 L 371.04 365.61 L 371.04 365.25 L 371.04 364.90 L 371.04 364.55 L 371.04 364.20 L 371.04 363.85 L 371.04 363.50 L 371.04 363.15 L 371.04 362.80 L 371.04 362.45 L 371.04 362.10 L 371.04 361.75 L 371.04 361.40 L 371.04 361.05 L 371.04 360.70 L 371.04 360.35 L 371.04 360.00 L 371.04 359.65 L 371.04 359.30 L 371.04 358.95 L 371.04 358.60 L 371.04 358.25 L 371.04 357.90 L 371.04 357.55 L 371.04 357.20 L 371.04 356.85 L 371.04 356.50 L 371.04 356.15 L 371.04 355.80 L 371.04 355.45 L 371.04 355.10 L 371.04 354.75 L 371.04 354.39 L 371.04 354.04 L 371.04 353.69 L 371.04 353.34 L 371.04 352.99 L 371.04 352.64 L 371.39 352.29 L 371.39 351.94 L 371.39 351.59 L 371.39 351.24 L 371.39 350.89 L 371.39 350.54 L 371.39 350.19 L 371.39 349.84 L 371.39 349.49 L 371.39 349.14 L 371.39 348.79 L 371.39 348.44 L 371.39 348.09 L 371.39 347.74 L 371.39 347.39 L 371.39 347.04 L 371.39 346.69 L 371.39 346.34 L 371.39 345.99 L 371.39 345.64 L 371.39 345.29 L 371.39 344.94 L 371.39 344.59 L 371.39 344.24 L 371.39 343.89 L 371.39 343.54 L 371.39 343.18 L 371.39 342.83 L 371.39 342.48 L 371.39 342.13 L 371.39 341.78 L 371.39 341.43 L 371.39 341.08 L 371.39 340.73 L 371.39 340.38 L 371.39 340.03 L 371.39 339.68 L 371.39 339.33 L 371.39 338.98 L 371.74 338.63 L 371.74 338.28 L 371.74 337.93 L 371.39 337.58 L 371.39 337.23 L 371.39 336.88 L 371.74 336.53 L 371.74 336.18 L 371.74 335.83 L 371.74 335.48 L 371.74 335.13 L 372.09 334.78 L 372.09 334.43 L 372.09 334.08 L 372.09 333.73 L 372.09 333.38 L 372.09 333.03 L 372.09 332.68 L 372.09 332.32 L 372.09 331.97 L 372.09 331.62 L 372.09 331.27 L 372.09 330.92 L 372.09 330.57 L 372.09 330.22 L 372.09 329.87 L 372.09 329.52 L 372.09 329.17 L 372.09 328.82 L 372.09 328.47 L 372.44 328.12 L 372.44 327.77 L 372.44 327.42 L 372.44 327.07 L 372.44 326.72 L 372.44 326.37 L 372.44 326.02 L 372.79 325.67 L 372.79 325.32 L 372.79 324.97 L 372.79 324.62 L 372.79 324.27 L 372.79 323.92 L 372.79 323.57 L 372.79 323.22 L 372.79 322.87 L 372.79 322.52 L 372.79 322.17 L 372.79 321.82 L 372.79 321.46 L 372.79 321.11 L 372.79 320.76 L 372.79 320.41 L 373.14 320.06 L 373.14 319.71 L 373.14 319.36 L 373.14 319.01 L 373.49 318.66 L 373.49 318.31 L 373.49 317.96 L 373.49 317.61 L 373.49 317.26 L 373.49 316.91 L 373.49 316.56 L 373.49 316.21 L 373.49 315.86 L 373.49 315.51 L 373.49 315.16 L 373.49 314.81 L 373.84 314.46 L 373.84 314.11 L 373.84 313.76 L 374.19 313.41 L 374.19 313.06 L 374.19 312.71 L 374.19 312.36 L 374.19 312.01 L 374.19 311.66 L 374.19 311.31 L 374.19 310.96 L 374.19 310.61 L 374.19 310.25 L 374.54 309.90 L 374.54 309.55 L 374.54 309.20 L 374.54 308.85 L 374.89 308.50 L 374.89 308.15 L 374.89 307.80 L 374.89 307.45 L 374.89 307.10 L 374.89 306.75 L 374.89 306.40 L 374.89 306.05 L 375.24 305.70 L 375.24 305.35 L 375.24 305.00 L 375.59 304.65 L 375.59 304.30 L 375.59 303.95 L 375.59 303.60 L 375.59 303.25 L 375.59 302.90 L 375.59 302.55 L 375.94 302.20 L 375.94 301.85 L 375.94 301.50 L 376.29 301.15 L 376.29 300.80 L 376.29 300.45 L 376.29 300.10 L 376.29 299.75 L 376.29 299.39 L 376.64 299.04 L 376.64 298.69 L 376.64 298.34 L 376.99 297.99 L 376.99 297.64 L 376.99 297.29 L 376.99 296.94 L 376.99 296.59 L 376.99 296.24 L 377.34 295.89 L 377.34 295.54 L 377.69 295.19 L 377.69 294.84 L 377.69 294.49 L 377.69 294.14 L 377.69 293.79 L 378.04 293.44 L 378.04 293.09 L 378.04 292.74 L 378.39 292.39 L 378.39 292.04 L 378.39 291.69 L 378.39 291.34 L 378.39 290.99 L 378.74 290.64 L 378.74 290.29 L 379.09 289.94 L 379.09 289.59 L 379.09 289.24 L 379.09 288.89 L 379.44 288.54 L 379.44 288.18 L 379.79 287.83 L 379.79 287.48 L 379.79 287.13 L 379.79 286.78 L 380.14 286.43 L 380.14 286.08 L 380.49 285.73 L 380.49 285.38 L 380.49 285.03 L 380.84 284.68 L 380.84 284.33 L 381.19 283.98 L 381.19 283.63 L 381.19 283.28 L 381.19 282.93 L 381.54 282.58 L 381.54 282.23 L 381.89 281.88 L 381.89 281.53 L 381.89 281.18 L 382.25 280.83 L 382.25 280.48 L 382.60 280.13 L 382.60 279.78 L 382.95 279.43 L 382.95 279.08 L 383.30 278.73 L 383.30 278.38 L 383.65 278.03 L 383.65 277.68 L 384.00 277.32 L 384.00 276.97 L 384.35 276.62 L 384.35 276.27 L 384.70 275.92 L 384.70 275.57 L 385.05 275.22 L 385.05 274.87 L 385.40 274.52 L 385.75 274.17 L 385.75 273.82 L 386.10 273.47 L 386.10 273.12 L 386.45 272.77 L 386.45 272.42 L 386.80 272.07 L 387.15 271.72 L 387.50 271.37 L 387.50 271.02 L 387.85 270.67 L 387.85 270.32 L 388.20 269.97 L 388.20 269.62 L 388.55 269.27 L 388.55 268.92 L 388.90 268.57 L 389.25 268.22 L 389.25 267.87 L 389.25 267.52 L 389.60 267.17 L 389.60 266.82 L 389.95 266.46 L 389.95 266.11 L 389.95 265.76 L 389.95 265.41 L 390.30 265.06 L 390.30 264.71 L 390.65 264.36 L 390.65 264.01 L 390.65 263.66 L 390.65 263.31 L 390.65 262.96 L 391.00 262.61 L 391.00 262.26 L 391.35 261.91 L 391.35 261.56 L 391.35 261.21 L 391.35 260.86 L 391.35 260.51 L 391.35 260.16 L 391.35 259.81 L 391.70 259.46 L 391.70 259.11 L 392.05 258.76 L 392.05 258.41 L 392.05 258.06 L 392.05 257.71 L 392.05 257.36 L 392.05 257.01 L 392.05 256.66 L 392.05 256.31 L 392.05 255.96 L 392.05 255.61 L 392.05 255.25 L 392.05 254.90 L 392.05 254.55 L 392.05 254.20 L 392.05 253.85 L 392.05 253.50 L 392.05 253.15 L 392.05 252.80 L 392.05 252.45 L 392.05 252.10 L 392.05 251.75 L 392.05 251.40 L 392.05 251.05 L 392.05 250.70 L 392.05 250.35 L 392.05 250.00 L 392.05 249.65 L 392.05 249.30 L 392.05 248.95 L 392.05 248.60 L 392.05 248.25 L 392.05 247.90 L 392.05 247.55 L 392.05 247.20 L 392.05 246.85 L 392.05 246.50 L 392.05 246.15 L 392.05 245.80 L 392.05 245.45 L 392.05 245.10 L 392.05 244.75 L 392.05 244.39 L 391.70 244.04 L 391.70 243.69 L 391.70 243.34 L 391.35 242.99 L 391.35 242.64 L 391.35 242.29 L 391.35 241.94 L 391.35 241.59 L 391.35 241.24 L 391.35 240.89 L 391.35 240.54 L 391.35 240.19 L 391.00 239.84 L 391.00 239.49 L 391.00 239.14 L 390.65 238.79 L 390.65 238.44 L 390.65 238.09 L 390.65 237.74 L 390.65 237.39 L 390.65 237.04 L 390.65 236.69 L 390.30 236.34 L 390.30 235.99 L 389.95 235.64 L 389.95 235.29 L 389.95 234.94 L 389.95 234.59 L 389.95 234.24 L 389.95 233.89 L 389.95 233.54 L 389.60 233.18 L 389.60 232.83 L 389.25 232.48 L 389.25 232.13 L 389.25 231.78 L 389.25 231.43 L 389.25 231.08 L 388.90 230.73 L 388.90 230.38 L 388.55 230.03 L 388.55 229.68 L 388.55 229.33 L 388.55 228.98 L 388.55 228.63 L 388.20 228.28 L 387.85 227.93 L 387.85 227.58 L 387.85 227.23 L 387.85 226.88 L 387.85 226.53 L 387.50 226.18 L 387.15 225.83 L 387.15 225.48 L 387.15 225.13 L 386.80 224.78 L 386.80 224.43 L 386.45 224.08 L 386.45 223.73 L 386.10 223.38 L 386.10 223.03 L 385.75 222.68 L 385.40 222.32 L 385.05 221.97 L 384.70 221.62 L 384.70 221.27 L 384.35 220.92 L 384.00 220.57 L 383.65 220.22 L 383.65 219.87 L 383.30 219.52 L 382.95 219.17 L 382.60 218.82 L 382.25 218.47 L 381.89 218.12 L 381.89 217.77 L 381.54 217.77 L 381.19 217.42 L 381.19 217.07 L 380.84 216.72 L 380.49 216.37 L 380.14 216.02 L 379.79 215.67 L 379.44 215.32 L 379.09 214.97 L 378.74 214.62 L 378.39 214.27 L 378.04 213.92 L 377.69 213.57 L 377.69 213.22 L 377.34 212.87 L 376.99 212.52 L 376.64 212.17 L 376.29 211.82 L 375.94 211.46 L 375.59 211.11 L 375.24 210.76 L 374.89 210.41 L 374.54 210.06 L 374.19 209.71 L 373.84 209.36 L 373.49 209.01 L 373.14 208.66 L 372.79 208.31 L 372.44 207.96 L 372.09 207.61 L 371.74 207.26 L 371.39 206.91 L 371.04 206.56 L 370.68 206.21 L 370.33 205.86 L 369.98 205.51 L 369.63 205.16 L 369.28 204.81 L 368.93 204.46 L 368.58 204.11 L 368.23 203.76 L 367.88 203.41 L 367.53 203.06 L 367.18 202.71 L 366.83 202.36 L 366.48 202.01 L 366.13 201.66 L 365.78 201.31 L 365.43 201.31 L 365.08 200.96 L 364.73 200.61 L 364.38 200.25 L 364.03 199.90 L 363.68 199.55 L 363.33 199.20 L 362.98 198.85 L 362.63 198.50 L 362.28 198.15 L 361.93 197.80 L 361.58 197.45 L 361.23 197.10 L 360.88 196.75 L 360.53 196.40 L 360.18 196.40 L 359.82 196.05 L 359.82 195.70 L 359.47 195.70 L 359.12 195.35 L 359.12 195.00 L 358.77 194.65 L 358.42 194.30 L 358.07 194.30 L 357.72 193.95 L 357.72 193.60 L 357.37 193.25 L 357.02 192.90 L 356.67 192.90 L 356.32 192.55 L 355.97 192.20 L 355.62 191.85 L 355.27 191.50 L 354.92 191.15 L 354.57 190.80 L 354.22 190.45 L 353.87 190.10 L 353.52 189.75 L 353.17 189.39 L 352.82 189.04 L 352.47 188.69 L 352.12 188.34 L 351.77 188.34 L 351.42 187.99 L 351.42 187.64 L 351.07 187.64 L 350.72 187.29 L 350.72 186.94 L 350.37 186.94 L 350.02 186.59 L 350.02 186.24 L 349.67 186.24 L 349.32 185.89 L 349.32 185.54 L 348.96 185.54 L 348.61 185.19 L 348.26 184.84 L 347.91 184.49 L 347.56 184.14 L 347.21 183.79 L 346.86 183.44 L 346.51 183.09 L 346.16 182.74 L 345.81 182.39 L 345.46 182.04 L 345.11 182.04 L 344.76 181.69 L 344.41 181.34 L 344.06 180.99 L 343.71 180.64 L 343.36 180.29 L 343.01 179.94 L 342.66 179.59 L 342.31 179.24 L 341.96 178.89 L 341.61 178.54 L 341.26 178.18 L 340.91 177.83 L 340.56 177.48 L 340.21 177.48 L 339.86 177.13 L 339.86 176.78 L 339.51 176.78 L 339.16 176.43 L 339.16 176.08 L 338.81 176.08 L 338.46 175.73 L 338.11 175.38 L 337.75 175.03 L 337.40 174.68 L 337.05 174.33 L 336.70 173.98 L 336.35 173.63 L 336.00 173.28 L 335.65 172.93 L 335.30 172.58 L 334.95 172.23 L 334.60 171.88 L 334.25 171.88 L 333.90 171.53 L 333.55 171.18 L 333.20 170.83 L 332.85 170.48 L 332.50 170.13 L 332.15 169.78 L 331.80 169.43 L 331.45 169.08 L 331.10 168.73 L 330.75 168.38 L 330.40 168.03 L 330.05 167.68 L 329.70 167.32 L 329.35 166.97 L 329.00 166.62 L 328.65 166.27 L 328.30 166.27 L 327.95 165.92 L 327.95 165.57 L 327.60 165.22 L 327.25 164.87 L 326.89 164.52 L 326.54 164.17 L 326.19 163.82 L 325.84 163.47 L 325.49 163.12 L 325.14 162.77 L 324.79 162.42 L 324.44 162.07 L 324.09 161.72 L 323.74 161.37 L 323.39 161.02 L 323.04 160.67 L 322.69 160.32 L 322.34 159.97 L 321.99 159.62 L 321.64 159.27 L 321.29 158.92 L 320.94 158.57 L 320.59 158.22 L 320.24 157.87 L 319.89 157.52 L 319.54 157.17 L 319.19 156.82 L 318.84 156.46 L 318.49 156.11 L 318.14 155.76 L 317.79 155.41 L 317.44 155.06 L 317.09 154.71 L 317.09 154.36 L 316.74 154.01 L 316.39 153.66 L 316.04 153.31 L 315.68 152.96 L 315.68 152.61 L 315.33 152.26 L 314.98 151.91 L 314.63 151.56 L 314.28 151.21 L 313.93 150.86 L 313.58 150.51 L 313.58 150.16 L 313.23 149.81 L 312.88 149.46 L 312.53 149.11 L 312.18 148.76 L 312.18 148.41 L 311.83 148.06 L 311.48 147.71 L 311.13 147.36 L 311.13 147.01 L 310.78 146.66 L 310.43 146.31 L 310.43 145.96 L 310.08 145.61 L 309.73 145.25 L 309.38 144.90 L 309.03 144.55 L 309.03 144.20 L 308.68 143.85 L 308.33 143.50 L 308.33 143.15 L 307.98 142.80 L 307.63 142.45 L 307.63 142.10 L 307.28 141.75 L 306.93 141.40 L 306.93 141.05 L 306.58 140.70 L 306.23 140.35 L 306.23 140.00 L 305.88 139.65 L 305.53 139.30 L 305.53 138.95 L 305.53 138.60 L 305.18 138.25 L 304.82 137.90 L 304.82 137.55 L 304.47 137.20 L 304.12 136.85 L 304.12 136.50 L 303.77 136.15 L 303.42 135.80 L 303.42 135.45 L 303.42 135.10 L 303.07 134.75 L 302.72 134.39 L 302.72 134.04 L 302.37 134.04 L 302.02 133.69 L 302.02 133.34 L 301.67 133.34 L 301.32 132.99 L 300.97 132.64 L 300.62 132.29 L 300.27 131.94 L 299.92 131.94 L 299.57 131.59 L 299.22 131.24 L 298.87 131.24 L 298.52 130.89 L 298.17 130.89 L 297.82 130.54 L 297.47 130.54 L 297.12 130.54 L 296.77 130.54 L 296.42 130.19 L 296.07 130.19 L 295.72 129.84 L 295.37 129.84 L 295.02 129.84 L 294.67 129.49 L 294.32 129.14 L 293.96 129.14 L 293.61 128.79 L 293.26 128.44 L 292.91 128.09 L 292.56 127.74 L 292.21 127.39 L 292.21 127.04 L 291.86 126.69 L 291.51 126.34 L 291.16 125.99 L 290.81 125.64 L 290.81 125.29 L 290.46 124.94 L 290.11 124.59 L 289.76 124.24 L 289.41 123.89 L 289.06 123.54 L 289.06 123.18 L 288.71 122.83 L 288.36 122.83 L 288.01 122.48 L 287.66 122.13 L 287.31 121.78 L 286.96 121.43 L 286.61 121.08 L 286.26 120.73 L 285.91 120.73 L 285.56 120.73 L 285.21 120.38 L 284.86 120.03 L 284.51 120.03 L 284.16 119.68 L 283.81 119.33 L 283.46 119.33 L 283.11 119.33 L 282.75 119.33 L 282.40 118.98 L 282.05 118.98 L 281.70 118.63 L 281.35 118.63 L 281.00 118.63 L 280.65 118.63 L 280.30 118.63 L 279.95 118.28 L 279.60 118.28 L 279.25 118.28 L 278.90 117.93 L 278.55 117.93 L 278.20 117.93 L 277.85 117.93 L 277.50 117.93 L 277.15 117.58 L 276.80 117.58 L 276.45 117.58 L 276.10 117.58 L 275.75 117.23 L 275.40 117.23 L 275.05 117.23 L 274.70 116.88 L 274.35 116.88 L 274.00 116.88 L 273.65 116.53 L 273.30 116.53 L 272.95 116.53 L 272.60 116.18 L 272.25 116.18 L 271.89 116.18 L 271.54 115.83 L 271.19 115.83 L 270.84 115.83 L 270.49 115.48 L 270.14 115.48 L 269.79 115.13 L 269.44 115.13 L 269.09 114.78 L 268.74 114.78 L 268.39 114.78 L 268.04 114.43 L 267.69 114.43 L 267.34 114.08 L 266.99 114.08 L 266.64 113.73 L 266.29 113.73 L 265.94 113.38 L 265.59 113.38 L 265.24 113.03 L 264.89 112.68 L 264.54 112.68 L 264.19 112.68 L 263.84 112.32 L 263.49 111.97 L 263.14 111.97 L 262.79 111.62 L 262.44 111.62 L 262.09 111.27 L 261.74 111.27 L 261.39 110.92 L 261.04 110.57 L 260.68 110.57 L 260.33 110.22 L 259.98 109.87 L 259.63 109.87 L 259.28 109.52 L 258.93 109.17 L 258.58 109.17 L 258.23 108.82 L 257.88 108.82 L 257.53 108.47 L 257.18 108.47 L 256.83 108.12 L 256.48 107.77 L 256.13 107.42 L 255.78 107.42 L 255.43 107.07 L 255.08 107.07 L 254.73 106.72 L 254.38 106.37 L 254.03 106.37 L 253.68 106.02 L 253.33 105.67 L 252.98 105.67 L 252.63 105.32 L 252.28 104.97 L 251.93 104.62 L 251.58 104.27 L 251.23 104.27 L 250.88 103.92 L 250.53 103.57 L 250.18 103.57 L 249.82 103.22 L 249.47 102.87 L 249.12 102.52 L 248.77 102.52 L 248.42 102.17 L 248.07 101.82 L 247.72 101.46 L 247.37 101.46 L 247.02 101.11 L 246.67 100.76 L 246.32 100.41 L 245.97 100.41 L 245.62 100.06 L 245.27 99.71 L 244.92 99.36 L 244.57 99.36 L 244.22 99.01 L 243.87 98.66 L 243.52 98.31 L 243.17 98.31 L 242.82 97.96 L 242.47 97.61 L 242.12 97.26 L 241.77 97.26 L 241.42 96.91 L 241.07 96.56 L 240.72 96.21 L 240.37 95.86 L 240.02 95.86 L 239.67 95.51 L 239.32 95.16 L 238.96 94.81 L 238.61 94.46 L 238.26 94.11 L 237.91 94.11 L 237.56 93.76 L 237.21 93.41 L 236.86 93.06 L 236.51 92.71 L 236.16 92.71 L 235.81 92.36 L 235.46 92.01 L 235.11 91.66 L 234.76 91.31 L 234.41 91.31 L 234.06 90.96 L 233.71 90.61 L 233.36 90.25 L 233.01 89.90 L 232.66 89.55 L 232.31 89.20 L 231.96 89.20 L 231.61 88.85 L 231.26 88.50 L 230.91 88.15 L 230.56 87.80 L 230.21 87.45 L 229.86 87.10 L 229.51 87.10 L 229.16 86.75 L 228.81 86.40 L 228.46 86.05 L 228.11 85.70 L 227.75 85.35 L 227.40 85.00 L 227.05 85.00 L 226.70 84.65 L 226.35 84.30 L 226.00 83.95 L 225.65 83.60 L 225.30 83.25 L 224.95 82.90 L 224.60 82.90 L 224.25 82.55 L 223.90 82.20 L 223.55 81.85 L 223.20 81.50 L 222.85 81.15 L 222.50 80.80 L 222.15 80.80 L 221.80 80.80 L 221.45 80.80 L 221.10 80.45 L 220.75 80.45 L 220.40 80.10 L 220.05 80.10 L 219.70 80.10 L 219.35 80.10 L 219.00 79.75 L 218.65 79.75 L 218.30 79.75 L 217.95 79.75 L 217.60 79.39 L 217.25 79.39 L 216.89 79.39 L 216.54 79.39 L 216.19 79.39 L 215.84 79.04 L 215.49 79.04 L 215.14 79.04 L 214.79 78.69 L 214.44 78.69 L 214.09 78.69 L 213.74 78.69 L 213.39 78.34 L 213.04 78.34 L 212.69 78.34 L 212.34 78.34 L 211.99 77.99 L 211.64 77.99 L 211.29 77.99 L 210.94 77.99 L 210.59 77.64 L 210.24 77.64 L 209.89 77.64 L 209.54 77.64 L 209.19 77.64 L 208.84 77.29 L 208.49 77.29 L 208.14 77.29 L 207.79 77.29 L 207.44 76.94 L 207.09 76.94 L 206.74 76.94 L 206.39 76.94 L 206.04 76.59 L 205.68 76.59 L 205.33 76.59 L 204.98 76.59 L 204.63 76.24 L 204.28 76.24 L 203.93 76.24 L 203.58 76.24 L 203.23 75.89 L 202.88 75.89 L 202.53 75.89 L 202.18 75.54 L 201.83 75.54 L 201.48 75.54 L 201.13 75.54 L 200.78 75.54 L 200.43 75.19 L 200.08 75.19 L 199.73 74.84 L 199.38 74.84 L 199.03 74.84 L 198.68 74.84 L 198.33 74.49 L 197.98 74.49 L 197.63 74.14 L 197.28 74.14 L 196.93 74.14 L 196.58 73.79 L 196.23 73.44 L 195.88 73.44 L 195.53 73.44 L 195.18 73.09 L 194.82 72.74 L 194.47 72.74 L 194.12 72.39 L 193.77 72.04 L 193.42 72.04 L 193.07 71.69 L 192.72 71.34 L 192.37 71.34 L 192.02 70.99 L 191.67 70.64 L 191.32 70.29 L 190.97 69.94 L 190.62 69.59 L 190.27 69.59 L 189.92 69.24 L 189.57 69.24 L 189.22 68.89 L 188.87 68.54 L 188.52 68.54 L 188.17 68.54 L 187.82 68.18 L 187.47 67.83 L 187.12 67.83 L 186.77 67.48 L 186.42 67.48 L 186.07 67.13 L 185.72 67.13 L 185.37 66.78 L 185.02 66.43 L 184.67 66.43 L 184.32 66.43 L 183.96 66.08 L 183.61 65.73 L 183.26 65.73 L 182.91 65.73 L 182.56 65.38 L 182.21 65.03 L 181.86 65.03 L 181.51 64.68 L 181.16 64.68 L 180.81 64.33 L 180.46 64.33 L 180.11 63.98 L 179.76 63.63 L 179.41 63.63 L 179.06 63.28 L 178.71 63.28 L 178.36 62.93 L 178.01 62.93 L 177.66 62.58 L 177.31 62.58 L 176.96 62.23 L 176.61 62.23 L 176.26 61.88 L 175.91 61.53 L 175.56 61.53 L 175.21 61.53 L 174.86 61.18 L 174.51 60.83 L 174.16 60.83 L 173.81 60.48 L 173.46 60.48 L 173.11 60.13 L 172.75 59.78 L 172.40 59.78 L 172.05 59.43 L 171.70 59.43 L 171.35 59.08 L 171.00 59.08 L 170.65 58.73 L 170.30 58.38 L 169.95 58.38 L 169.60 58.03 L 169.25 58.03 L 168.90 57.68 L 168.55 57.68 L 168.20 57.32 L 167.85 56.97 L 167.50 56.97 L 167.15 56.97 L 166.80 56.62 L 166.45 56.27 L 166.10 56.27 L 165.75 55.92 L 165.40 55.57 L 165.05 55.57 L 164.70 55.22 L 164.35 55.22 L 164.00 54.87 L 163.65 54.87 L 163.30 54.52 L 162.95 54.17 L 162.60 54.17 L 162.25 53.82 L 161.89 53.47 L 161.54 53.47 L 161.19 53.12 L 160.84 53.12 L 160.49 52.77 L 160.14 52.77 L 159.79 52.42 L 159.44 52.07 L 159.09 52.07 L 158.74 51.72 L 158.39 51.37 L 158.04 51.37 L 157.69 51.02 L 157.34 50.67 L 156.99 50.67 L 156.64 50.32 L 156.29 49.97 L 155.94 49.97 L 155.59 49.62 L 155.24 49.27 L 154.89 49.27 L 154.54 48.92 L 154.54 48.57 L 154.19 48.57 L 153.84 48.22 L 153.49 47.87 L 153.14 47.52 L 152.79 47.17 L 152.44 47.17 L 152.09 47.17 L 151.74 46.82 L 151.39 46.46 L 151.04 46.46 L 150.68 46.46 L 150.33 46.11 L 149.98 45.76 L 149.63 45.76 L 149.28 45.76 L 148.93 45.41 L 148.58 45.41 L 148.23 45.06 L 147.88 45.06 L 147.53 45.06 L 147.18 44.71 L 146.83 44.71 L 146.48 44.36 L 146.13 44.36 L 145.78 44.36 L 145.43 44.01 L 145.08 44.01 L 144.73 43.66 L 144.38 43.66 L 144.03 43.66 L 143.68 43.31 L 143.33 43.31 L 142.98 42.96 L 142.63 42.96 L 142.28 42.96 L 141.93 42.96 L 141.58 42.61 L 141.23 42.26 L 140.88 42.26 L 140.53 42.26 L 140.18 42.26 L 139.82 41.91 L 139.47 41.91 L 139.12 41.56 L 138.77 41.56 L 138.42 41.56 L 138.07 41.21 L 137.72 41.21 L 137.37 40.86 L 137.02 40.86 L 136.67 40.86 L 136.32 40.51 L 135.97 40.51 L 135.62 40.51 L 135.27 40.16 L 134.92 40.16 L 134.57 39.81 L 134.22 39.81 L 133.87 39.81 L 133.52 39.46 L 133.17 39.46 L 132.82 39.11 L 132.47 39.11 L 132.12 39.11 L 131.77 38.76 L 131.42 38.76 L 131.07 38.41 L 130.72 38.41 L 130.37 38.06 L 130.02 38.06 L 129.67 37.71 L 129.32 37.71 L 128.96 37.71 L 128.61 37.36 L 128.26 37.36 L 127.91 37.01 L 127.56 37.01 L 127.21 36.66 L 126.86 36.31 L 126.51 36.31 L 126.16 36.31 L 125.81 35.96 L 125.46 35.61 L 125.11 35.61 L 124.76 35.61 L 124.41 35.25 L 124.06 34.90 L 123.71 34.90 L 123.36 34.55 L 123.01 34.20 L 122.66 34.20 L 122.31 33.85 L 121.96 33.85 L 121.61 33.50 L 121.26 33.50 L 120.91 33.15 L 120.56 32.80 L 120.21 32.80 L 119.86 32.45 L 119.86 32.10 L 119.51 32.10 L 119.16 31.75 L 118.81 31.40 L 118.46 31.40 L 118.11 31.05 L 117.75 30.70 L 117.40 30.70 L 117.05 30.35 L 116.70 30.00 L 116.35 30.00 L 116.00 30.00 L 115.65 30.00 L 115.30 30.00 L 114.95 30.00 L 114.60 30.00 L 114.25 30.00 L 113.90 30.00 L 113.55 30.00 Z"/><path d="M 271.19 203.76 L 271.54 203.41 L 271.89 203.41 L 272.25 203.41 L 272.60 203.41 L 272.95 203.41 L 273.30 203.41 L 273.65 203.41 L 274.00 203.76 L 274.35 203.76 L 274.70 203.76 L 275.05 203.76 L 275.40 203.76 L 275.75 203.76 L 276.10 203.76 L 276.45 203.76 L 276.80 203.76 L 277.15 204.11 L 277.50 204.11 L 277.85 204.46 L 278.20 204.46 L 278.55 204.46 L 278.90 204.46 L 279.25 204.46 L 279.60 204.81 L 279.95 204.81 L 280.30 205.16 L 280.65 205.16 L 281.00 205.16 L 281.35 205.16 L 281.70 205.16 L 282.05 205.51 L 282.40 205.51 L 282.75 205.86 L 283.11 205.86 L 283.46 205.86 L 283.81 205.86 L 284.16 206.21 L 284.51 206.21 L 284.86 206.56 L 285.21 206.56 L 285.56 206.56 L 285.91 206.91 L 286.26 207.26 L 286.61 207.26 L 286.96 207.26 L 287.31 207.26 L 287.66 207.61 L 288.01 207.96 L 288.36 207.96 L 288.71 207.96 L 289.06 208.31 L 289.41 208.31 L 289.76 208.66 L 290.11 208.66 L 290.46 208.66 L 290.81 209.01 L 291.16 209.36 L 291.51 209.36 L 291.86 209.71 L 292.21 209.71 L 292.56 210.06 L 292.91 210.06 L 293.26 210.41 L 293.61 210.41 L 293.96 210.76 L 294.32 210.76 L 294.67 211.11 L 295.02 211.46 L 295.37 211.46 L 295.72 211.82 L 296.07 212.17 L 296.42 212.17 L 296.77 212.52 L 297.12 212.87 L 297.47 213.22 L 297.82 213.22 L 298.17 213.57 L 298.52 213.92 L 298.87 214.27 L 299.22 214.62 L 299.57 214.97 L 299.57 215.32 L 299.92 215.67 L 300.27 216.02 L 300.27 216.37 L 300.27 216.72 L 300.27 217.07 L 300.27 217.42 L 300.27 217.77 L 300.27 218.12 L 299.92 218.47 L 299.57 218.82 L 299.57 219.17 L 299.22 219.52 L 298.87 219.87 L 298.52 220.22 L 298.17 220.57 L 297.82 220.57 L 297.47 220.92 L 297.12 221.27 L 296.77 221.27 L 296.42 221.62 L 296.07 221.97 L 295.72 221.97 L 295.37 222.32 L 295.02 222.32 L 294.67 222.68 L 294.32 222.68 L 293.96 222.68 L 293.61 223.03 L 293.26 223.38 L 292.91 223.38 L 292.56 223.38 L 292.21 223.38 L 291.86 223.73 L 291.51 224.08 L 291.16 224.08 L 290.81 224.08 L 290.46 224.08 L 290.11 224.43 L 289.76 224.43 L 289.41 224.78 L 289.06 224.78 L 288.71 224.78 L 288.36 224.78 L 288.01 225.13 L 287.66 225.13 L 287.31 225.48 L 286.96 225.48 L 286.61 225.48 L 286.26 225.48 L 285.91 225.48 L 285.56 225.83 L 285.21 225.83 L 284.86 225.83 L 284.51 226.18 L 284.16 226.18 L 283.81 226.18 L 283.46 226.18 L 283.11 226.18 L 282.75 226.53 L 282.40 226.53 L 282.05 226.53 L 281.70 226.88 L 281.35 226.88 L 281.00 226.88 L 280.65 226.88 L 280.30 226.88 L 279.95 226.88 L 279.60 227.23 L 279.25 227.23 L 278.90 227.23 L 278.55 227.23 L 278.20 227.23 L 277.85 227.23 L 277.50 227.23 L 277.15 227.23 L 276.80 226.88 L 276.45 226.88 L 276.10 226.88 L 275.75 226.88 L 275.40 226.88 L 275.05 226.88 L 274.70 226.88 L 274.35 226.88 L 274.00 226.53 L 273.65 226.53 L 273.30 226.53 L 272.95 226.18 L 272.60 226.18 L 272.25 226.18 L 271.89 226.18 L 271.54 226.53 L 271.19 226.53 L 270.84 226.53 L 270.49 226.53 L 270.14 226.53 L 269.79 226.53 L 269.44 226.53 L 269.09 226.53 L 268.74 226.53 L 268.39 226.18 L 268.04 226.18 L 267.69 226.18 L 267.34 226.18 L 266.99 225.83 L 266.64 225.48 L 266.29 225.48 L 265.94 225.48 L 265.59 225.13 L 265.24 224.78 L 264.89 224.78 L 264.54 224.78 L 264.19 224.43 L 263.84 224.08 L 263.49 224.08 L 263.14 224.08 L 262.79 224.08 L 262.44 223.73 L 262.09 223.38 L 261.74 223.38 L 261.39 223.38 L 261.04 223.38 L 260.68 223.03 L 260.33 223.03 L 259.98 222.68 L 259.63 222.68 L 259.28 222.68 L 258.93 222.68 L 258.58 222.68 L 258.23 222.68 L 257.88 222.68 L 257.53 222.68 L 257.18 222.68 L 256.83 222.68 L 256.48 222.68 L 256.13 222.68 L 255.78 222.68 L 255.43 222.68 L 255.08 222.68 L 254.73 222.68 L 254.38 222.68 L 254.03 222.68 L 253.68 222.68 L 253.33 222.68 L 252.98 222.68 L 252.63 223.03 L 252.28 223.03 L 251.93 223.38 L 251.58 223.38 L 251.23 223.38 L 250.88 223.38 L 250.53 223.73 L 250.18 224.08 L 249.82 224.08 L 249.47 224.08 L 249.12 224.43 L 248.77 224.78 L 248.42 224.78 L 248.07 225.13 L 247.72 225.48 L 247.37 225.83 L 247.02 225.83 L 246.67 226.18 L 246.32 226.53 L 245.97 226.88 L 245.62 227.23 L 245.27 227.58 L 244.92 227.58 L 244.57 227.93 L 244.22 228.28 L 243.87 228.28 L 243.52 228.63 L 243.17 228.63 L 242.82 228.98 L 242.47 228.98 L 242.12 228.98 L 241.77 228.98 L 241.42 228.98 L 241.07 228.98 L 240.72 228.98 L 240.37 228.98 L 240.02 228.98 L 239.67 228.98 L 239.32 228.98 L 238.96 228.98 L 238.61 228.98 L 238.26 228.98 L 237.91 228.98 L 237.56 228.98 L 237.21 228.98 L 236.86 228.98 L 236.51 228.98 L 236.16 228.98 L 235.81 228.98 L 235.46 228.98 L 235.11 228.98 L 234.76 228.98 L 234.41 228.98 L 234.06 228.98 L 233.71 228.98 L 233.36 228.98 L 233.01 228.98 L 232.66 228.98 L 232.31 228.98 L 231.96 228.98 L 231.61 228.98 L 231.26 228.98 L 230.91 228.98 L 230.56 228.98 L 230.21 228.98 L 229.86 228.98 L 229.51 228.98 L 229.16 228.98 L 228.81 228.98 L 228.46 228.98 L 228.11 228.98 L 227.75 228.98 L 227.40 228.63 L 227.05 228.63 L 226.70 228.63 L 226.35 228.63 L 226.00 228.63 L 225.65 228.63 L 225.30 228.63 L 224.95 228.63 L 224.60 228.63 L 224.25 228.63 L 223.90 228.63 L 223.55 228.63 L 223.20 228.28 L 222.85 228.28 L 222.50 228.28 L 222.15 228.28 L 221.80 228.28 L 221.45 228.28 L 221.10 228.28 L 220.75 228.28 L 220.40 228.28 L 220.05 228.28 L 219.70 228.28 L 219.35 228.28 L 219.00 228.28 L 218.65 228.28 L 218.30 228.28 L 217.95 228.28 L 217.60 228.28 L 217.25 228.28 L 216.89 228.28 L 216.54 227.93 L 216.19 227.93 L 215.84 227.93 L 215.49 227.58 L 215.14 227.58 L 214.79 227.23 L 214.79 226.88 L 214.44 226.53 L 214.09 226.18 L 214.09 225.83 L 213.74 225.48 L 213.39 225.13 L 213.39 224.78 L 213.39 224.43 L 213.04 224.08 L 212.69 223.73 L 212.69 223.38 L 212.34 223.03 L 212.34 222.68 L 211.99 222.32 L 211.99 221.97 L 211.99 221.62 L 211.99 221.27 L 211.64 220.92 L 211.64 220.57 L 211.64 220.22 L 211.64 219.87 L 211.99 219.52 L 211.99 219.17 L 211.99 218.82 L 212.34 218.47 L 212.69 218.12 L 213.04 217.77 L 213.39 217.42 L 213.74 217.42 L 214.09 217.07 L 214.44 216.72 L 214.79 216.37 L 215.14 216.02 L 215.49 216.02 L 215.84 215.67 L 216.19 215.32 L 216.54 215.32 L 216.89 214.97 L 217.25 214.62 L 217.60 214.62 L 217.95 214.27 L 218.30 214.27 L 218.65 213.92 L 219.00 213.92 L 219.35 213.57 L 219.70 213.22 L 220.05 213.22 L 220.40 212.87 L 220.75 212.52 L 221.10 212.52 L 221.45 212.52 L 221.80 212.17 L 222.15 211.82 L 222.50 211.82 L 222.85 211.82 L 223.20 211.82 L 223.55 211.46 L 223.90 211.46 L 224.25 211.46 L 224.60 211.46 L 224.95 211.11 L 225.30 211.11 L 225.65 211.11 L 226.00 211.11 L 226.35 211.11 L 226.70 210.76 L 227.05 210.76 L 227.40 210.76 L 227.75 210.76 L 228.11 210.76 L 228.46 210.41 L 228.81 210.41 L 229.16 210.41 L 229.51 210.41 L 229.86 210.06 L 230.21 210.06 L 230.56 210.06 L 230.91 210.06 L 231.26 210.06 L 231.61 209.71 L 231.96 209.71 L 232.31 209.71 L 232.66 209.71 L 233.01 209.36 L 233.36 209.36 L 233.71 209.36 L 234.06 209.36 L 234.41 209.36 L 234.76 209.36 L 235.11 209.01 L 235.46 209.01 L 235.81 209.01 L 236.16 209.01 L 236.51 208.66 L 236.86 208.66 L 237.21 208.66 L 237.56 208.66 L 237.91 208.66 L 238.26 208.66 L 238.61 208.66 L 238.96 208.66 L 239.32 208.31 L 239.67 208.31 L 240.02 208.31 L 240.37 208.31 L 240.72 207.96 L 241.07 207.96 L 241.42 207.96 L 241.77 207.96 L 242.12 207.96 L 242.47 207.96 L 242.82 207.96 L 243.17 207.96 L 243.52 207.96 L 243.87 207.61 L 244.22 207.61 L 244.57 207.61 L 244.92 207.61 L 245.27 207.61 L 245.62 207.61 L 245.97 207.26 L 246.32 207.26 L 246.67 207.26 L 247.02 207.26 L 247.37 207.26 L 247.72 207.26 L 248.07 207.26 L 248.42 207.26 L 248.77 207.26 L 249.12 207.26 L 249.47 207.26 L 249.82 207.26 L 250.18 207.26 L 250.53 207.26 L 250.88 207.26 L 251.23 207.26 L 251.58 207.26 L 251.93 207.26 L 252.28 207.26 L 252.63 207.26 L 252.98 207.26 L 253.33 207.26 L 253.68 207.26 L 254.03 207.26 L 254.38 207.26 L 254.73 207.26 L 255.08 207.26 L 255.43 207.26 L 255.78 207.26 L 256.13 207.26 L 256.48 207.26 L 256.83 207.26 L 257.18 207.26 L 257.53 207.26 L 257.88 207.26 L 258.23 206.91 L 258.58 206.91 L 258.93 206.91 L 259.28 206.91 L 259.63 206.91 L 259.98 206.91 L 260.33 206.91 L 260.68 206.56 L 261.04 206.56 L 261.39 206.56 L 261.74 206.56 L 262.09 206.56 L 262.44 206.56 L 262.79 206.56 L 263.14 206.56 L 263.49 206.21 L 263.84 206.21 L 264.19 205.86 L 264.54 205.86 L 264.89 205.86 L 265.24 205.86 L 265.59 205.51 L 265.94 205.51 L 266.29 205.16 L 266.64 205.16 L 266.99 205.16 L 267.34 204.81 L 267.69 204.46 L 268.04 204.46 L 268.39 204.46 L 268.74 204.11 L 269.09 204.11 L 269.44 203.76 L 269.79 203.76 L 270.14 203.76 L 270.49 203.76 L 270.84 203.76 Z"/><path d="M 220.40 172.58 L 220.75 172.23 L 221.10 172.23 L 221.45 172.23 L 221.80 172.23 L 222.15 172.58 L 222.50 172.58 L 222.85 172.58 L 223.20 172.93 L 223.55 172.93 L 223.90 172.93 L 224.25 173.28 L 224.60 173.28 L 224.95 173.28 L 225.30 173.63 L 225.65 173.63 L 226.00 173.63 L 226.35 173.63 L 226.70 173.98 L 227.05 173.98 L 227.40 173.98 L 227.75 173.98 L 228.11 173.98 L 228.46 173.98 L 228.81 173.98 L 229.16 174.33 L 229.51 174.33 L 229.86 174.33 L 230.21 173.98 L 230.56 173.98 L 230.91 173.98 L 231.26 173.98 L 231.61 173.98 L 231.96 173.98 L 232.31 173.98 L 232.66 173.98 L 233.01 173.98 L 233.36 173.98 L 233.71 173.98 L 234.06 173.98 L 234.41 173.63 L 234.76 173.63 L 235.11 173.63 L 235.46 173.63 L 235.81 173.63 L 236.16 173.63 L 236.51 173.63 L 236.86 173.63 L 237.21 173.63 L 237.56 173.63 L 237.91 173.98 L 238.26 173.98 L 238.61 173.98 L 238.96 173.98 L 239.32 173.98 L 239.67 173.98 L 240.02 174.33 L 240.37 174.33 L 240.72 174.33 L 241.07 174.33 L 241.42 174.68 L 241.77 174.68 L 242.12 174.68 L 242.47 175.03 L 242.82 175.03 L 243.17 175.03 L 243.52 175.38 L 243.87 175.38 L 244.22 175.73 L 244.57 175.73 L 244.92 176.08 L 245.27 176.08 L 245.62 176.43 L 245.97 176.78 L 246.32 176.78 L 246.67 177.13 L 247.02 177.48 L 247.37 177.83 L 247.72 178.18 L 248.07 178.54 L 248.42 178.89 L 248.77 179.24 L 248.77 179.59 L 248.77 179.94 L 249.12 180.29 L 249.12 180.64 L 249.12 180.99 L 249.12 181.34 L 249.12 181.69 L 249.12 182.04 L 248.77 182.39 L 248.77 182.74 L 248.77 183.09 L 248.42 183.44 L 248.42 183.79 L 248.07 184.14 L 248.07 184.49 L 247.72 184.84 L 247.37 184.84 L 247.37 185.19 L 247.02 185.54 L 246.67 185.54 L 246.67 185.89 L 246.32 186.24 L 245.97 186.24 L 245.62 186.59 L 245.27 186.94 L 244.92 186.94 L 244.57 187.29 L 244.22 187.64 L 243.87 187.64 L 243.52 187.99 L 243.17 188.34 L 242.82 188.34 L 242.47 188.69 L 242.12 188.69 L 241.77 189.04 L 241.42 189.04 L 241.07 189.39 L 240.72 189.39 L 240.37 189.75 L 240.02 189.75 L 239.67 189.75 L 239.32 190.10 L 238.96 190.10 L 238.61 190.45 L 238.26 190.45 L 237.91 190.45 L 237.56 190.45 L 237.21 190.80 L 236.86 190.80 L 236.51 191.15 L 236.16 191.15 L 235.81 191.15 L 235.46 191.15 L 235.11 191.50 L 234.76 191.50 L 234.41 191.50 L 234.06 191.85 L 233.71 191.85 L 233.36 191.85 L 233.01 191.85 L 232.66 192.20 L 232.31 192.20 L 231.96 192.20 L 231.61 192.20 L 231.26 192.20 L 230.91 192.55 L 230.56 192.55 L 230.21 192.55 L 229.86 192.55 L 229.51 192.55 L 229.16 192.90 L 228.81 192.90 L 228.46 192.90 L 228.11 192.90 L 227.75 192.90 L 227.40 192.90 L 227.05 192.90 L 226.70 192.90 L 226.35 193.25 L 226.00 193.25 L 225.65 193.25 L 225.30 193.25 L 224.95 193.25 L 224.60 193.25 L 224.25 193.25 L 223.90 193.25 L 223.55 193.60 L 223.20 193.60 L 222.85 193.60 L 222.50 193.60 L 222.15 193.60 L 221.80 193.60 L 221.45 193.60 L 221.10 193.60 L 220.75 193.60 L 220.40 193.60 L 220.05 193.60 L 219.70 193.60 L 219.35 193.60 L 219.00 193.25 L 218.65 193.25 L 218.30 193.25 L 217.95 193.25 L 217.60 193.25 L 217.25 192.90 L 216.89 192.90 L 216.54 192.55 L 216.19 192.20 L 215.84 191.85 L 215.49 191.50 L 215.49 191.15 L 215.14 190.80 L 214.79 190.45 L 214.79 190.10 L 214.79 189.75 L 214.79 189.39 L 214.79 189.04 L 214.79 188.69 L 214.44 188.34 L 214.44 187.99 L 214.44 187.64 L 214.44 187.29 L 214.44 186.94 L 214.44 186.59 L 214.44 186.24 L 214.44 185.89 L 214.44 185.54 L 214.44 185.19 L 214.79 184.84 L 214.79 184.49 L 214.79 184.14 L 214.79 183.79 L 214.79 183.44 L 214.79 183.09 L 214.79 182.74 L 214.79 182.39 L 215.14 182.04 L 215.14 181.69 L 215.49 181.34 L 215.49 180.99 L 215.49 180.64 L 215.49 180.29 L 215.84 179.94 L 215.84 179.59 L 216.19 179.24 L 216.19 178.89 L 216.19 178.54 L 216.54 178.18 L 216.89 177.83 L 216.89 177.48 L 216.89 177.13 L 217.25 176.78 L 217.25 176.43 L 217.60 176.08 L 217.60 175.73 L 217.95 175.38 L 218.30 175.03 L 218.30 174.68 L 218.65 174.33 L 219.00 173.98 L 219.00 173.63 L 219.35 173.28 L 219.70 172.93 L 220.05 172.58 Z"/>
  </g>
</svg>
